

<svg>
  
  <style type="text/css">
    .st0{
      display:none;
    }

    g{display: none;}
    g:target g{display: inline;}
    g:target{display: inline;}
  </style>

  <g class="st0" id="arrow_dweb">
    <g class="st0">
      <path fill="#FF8453" d="M8 16c4.42 0 8-3.58 8-8s-3.58-8-8-8-8 3.58-8 8 3.58 8 8 8zm-1.057-3.225l-.384-.348a.722.722 0 0 1 .014-1.094l2.634-2.31h-6.37c-.464 0-.837-.342-.837-.766v-.51c0-.425.373-.766.837-.766h6.37l-2.634-2.31a.726.726 0 0 1-.014-1.098l.384-.348c.324-.3.854-.3 1.182 0l4.63 4.237a.72.72 0 0 1 0 1.082l-4.63 4.231c-.324.3-.854.3-1.182 0z"/>
    </g>
  </g>
  <g class="st0" id="arrow_mweb">
    <g class="st0">
      <path fill="#FF8453" d="M6.5 13a6.5 6.5 0 1 0 0-13 6.5 6.5 0 0 0 0 13zm-.48-2.579l-.288-.286a.63.63 0 0 1 .01-.899l1.98-1.897H2.934a.628.628 0 0 1-.629-.63V6.29c0-.348.28-.629.63-.629H7.72L5.743 3.764a.632.632 0 0 1-.01-.902l.287-.286a.628.628 0 0 1 .889 0l3.478 3.481a.628.628 0 0 1 0 .889L6.909 10.42a.628.628 0 0 1-.889 0z"></path>
    </g>
  </g>
  <g class="st0" id="aptitude_course_dweb">
    <defs>
      <linearGradient id="a1" x1=".386%" x2="99.728%" y1=".471%" y2="99.644%">
        <stop offset=".018%" stop-color="#46B6EA"></stop>
        <stop offset="49.543%" stop-color="#C471ED"></stop>
        <stop offset="100%" stop-color="#F1546B"></stop>
      </linearGradient>
      <linearGradient id="b1" x1=".368%" x2="99.728%" y1="42.371%" y2="57.643%">
        <stop offset=".018%" stop-color="#46B6EA"></stop>
        <stop offset="49.543%" stop-color="#C471ED"></stop>
        <stop offset="100%" stop-color="#F1546B"></stop>
      </linearGradient>
      <linearGradient id="c1" x1=".368%" x2="99.728%" y1="22.686%" y2="77.367%">
        <stop offset=".018%" stop-color="#46B6EA"></stop>
        <stop offset="49.543%" stop-color="#C471ED"></stop>
        <stop offset="100%" stop-color="#F1546B"></stop>
      </linearGradient>
      <linearGradient id="d1" x1=".368%" x2="99.728%" y1="42.37%" y2="57.645%">
        <stop offset=".018%" stop-color="#46B6EA"></stop>
        <stop offset="49.543%" stop-color="#C471ED"></stop>
        <stop offset="100%" stop-color="#F1546B"></stop>
      </linearGradient>
      <linearGradient id="e1" x1=".368%" x2="99.728%" y1="22.684%" y2="77.369%">
        <stop offset=".018%" stop-color="#46B6EA"></stop>
        <stop offset="49.543%" stop-color="#C471ED"></stop>
        <stop offset="100%" stop-color="#F1546B"></stop>
      </linearGradient>
    </defs>
    <g class="st0" fill="none">
      <path fill="url(#a1)" d="M32 16.77c0-1.99-.987-3.816-2.52-4.785.813-1.84.541-4.133-.824-5.663-.822-.922-1.913-1.443-3.082-1.48-.235-2.008-1.894-3.53-3.847-3.498-.415.008-.89.044-1.349.193-.484-1.085-1.523-1.56-2.47-1.521-.699.028-1.4.333-1.908.888a2.748 2.748 0 0 0-1.908-.888c-.943-.038-1.984.436-2.47 1.52-.457-.148-.934-.184-1.35-.192-1.951-.043-3.61 1.49-3.846 3.498-1.17.037-2.26.559-3.082 1.48-1.365 1.53-1.637 3.824-.823 5.663C.987 12.954 0 14.78 0 16.77c0 1.974.972 3.785 2.484 4.76a4.603 4.603 0 0 0-.312 2.72c.394 2.14 2.222 3.704 4.268 3.799.275 1.949 1.787 3.39 3.615 3.39.601 0 1.318-.052 1.944-.367a2.587 2.587 0 0 0 2.093.911A2.744 2.744 0 0 0 16 31.095a2.748 2.748 0 0 0 2.015.891c.714 0 1.467-.292 1.986-.914.626.315 1.343.366 1.945.366 1.828 0 3.34-1.44 3.615-3.39 2.03-.114 3.836-1.671 4.227-3.798a4.586 4.586 0 0 0-.303-2.698c1.53-.97 2.515-2.794 2.515-4.782zM14.032 30.493c-.525.017-1.112-.288-1.187-1.218a.747.747 0 0 0-1.489.12c.009.106.022.207.038.305-.358.214-.891.247-1.34.247-1.049 0-1.955-.902-2.135-2.085 1.2-.372 2.064-1.233 2.415-2.44a.746.746 0 1 0-1.433-.417c-.317 1.087-1.192 1.434-1.87 1.533-1.542.226-3.094-.945-3.39-2.556a3.126 3.126 0 0 1 .376-2.165.726.726 0 0 0 .21-.287c.007-.015.01-.031.014-.047.057-.075.113-.15.177-.22a.748.748 0 0 0-1.114-.995l-.01.013c-1.096-.702-1.8-2.04-1.8-3.51 0-1.48.715-2.83 1.826-3.526l.024.03.583.653a.742.742 0 0 0 1.054.06.746.746 0 0 0 .06-1.054l-.583-.654a3.557 3.557 0 0 1-.286-.374c-.01-.016-.019-.032-.03-.046-.89-1.372-.787-3.306.316-4.543.567-.634 1.313-.984 2.102-.984.788 0 1.534.35 2.1.984a.747.747 0 0 0 1.115-.994 4.412 4.412 0 0 0-1.873-1.26c.126-1.259 1.124-2.225 2.3-2.225h.042c.515.01.867.072 1.11.199v.284a.748.748 0 0 0 1.494 0v-.614c.082-.914.664-1.22 1.184-1.198.608.025 1.222.483 1.222 1.453v.697c0 1.128-.842 2.045-1.877 2.045a.747.747 0 0 0 0 1.494c.694 0 1.34-.222 1.877-.601v3.498a3.236 3.236 0 0 0-1.877-.601c-.668 0-1.29.208-1.815.562l-.02.013-.055.036c-.018.012-.036.021-.053.035-.602.49-1.345.7-2.09.596-.752-.107-1.422-.522-1.887-1.17a.745.745 0 0 0-1.042-.17.745.745 0 0 0-.171 1.041c.705.982 1.731 1.613 2.89 1.777a4.205 4.205 0 0 0 .962.025c-.056.255-.088.52-.088.794a.747.747 0 1 0 1.493 0c0-1.128.842-2.046 1.876-2.046 1.035 0 1.877.918 1.877 2.046V29.04c0 .969-.614 1.428-1.222 1.452zm14.624-10.225a.747.747 0 0 0-1.114.994c.1.113.19.232.273.354l.03.047a3.12 3.12 0 0 1 .474 2.319c-.296 1.61-1.85 2.781-3.39 2.556-.556-.082-1.536-.389-1.87-1.533a.747.747 0 0 0-1.433.417c.355 1.219 1.234 2.086 2.453 2.452-.184 1.177-1.088 2.072-2.134 2.072-.448 0-.98-.032-1.34-.246.017-.099.03-.2.038-.305a.748.748 0 0 0-.684-.805.752.752 0 0 0-.804.685c-.075.93-.66 1.235-1.187 1.218-.608-.025-1.222-.483-1.222-1.453V13.03c0-1.128.842-2.045 1.877-2.045 1.034 0 1.876.917 1.876 2.045a.746.746 0 1 0 1.493 0c0-.273-.032-.538-.088-.794a4.086 4.086 0 0 0 .963-.025c1.158-.164 2.184-.795 2.89-1.776a.747.747 0 0 0-1.214-.872c-.465.648-1.135 1.063-1.886 1.17a2.685 2.685 0 0 1-2.091-.596c-.017-.013-.036-.023-.053-.035l-.056-.036c-.006-.004-.012-.009-.02-.012a3.222 3.222 0 0 0-3.691.038V6.595c.537.38 1.182.601 1.876.601a.746.746 0 1 0 0-1.493c-1.034 0-1.876-.918-1.876-2.045V2.96c0-.97.614-1.429 1.222-1.453.525-.016 1.102.284 1.184 1.197v.614a.746.746 0 1 0 1.493 0v-.284c.244-.127.596-.188 1.11-.198 1.189-.021 2.216.95 2.342 2.223a4.44 4.44 0 0 0-1.873 1.262.748.748 0 0 0 1.114.994c.567-.635 1.313-.984 2.102-.984.788 0 1.535.35 2.101.984 1.103 1.236 1.207 3.17.317 4.541l-.032.048c-.087.13-.18.256-.285.374l-.583.653a.748.748 0 0 0 1.115.995l.583-.653.024-.03c1.11.696 1.826 2.046 1.826 3.526s-.715 2.83-1.825 3.527l-.025-.03z"></path>
      <path fill="url(#b1)" d="M26.409 16.606a1.78 1.78 0 0 1-1.346.334 1.576 1.576 0 0 1-.84-.428 3.574 3.574 0 0 0 .326-.955.748.748 0 0 0-1.467-.283 2.155 2.155 0 0 1-.292.74 1.965 1.965 0 0 1-.83.731 1.775 1.775 0 0 1-1.085.114 1.802 1.802 0 0 1-.94-.543 2.098 2.098 0 0 1-.526-1.042.747.747 0 0 0-1.466.282 3.585 3.585 0 0 0 .904 1.783 3.357 3.357 0 0 0 1.071.768c.207.093.422.164.64.21a3.166 3.166 0 0 0 1.375.001 3.243 3.243 0 0 0 1.216-.543c.044-.033.086-.07.13-.104.427.384.95.642 1.535.74.177.031.355.046.532.046.682 0 1.354-.22 1.937-.64a.747.747 0 1 0-.874-1.212z"></path>
      <path fill="url(#c1)" d="M25.137 22.311l-.012-.02c-.872-1.405-2.492-2.043-4.03-1.585-.01.002-.017.006-.026.01a1.738 1.738 0 0 1-1.406-.137 1.89 1.89 0 0 1-.303-.211.746.746 0 1 0-.973 1.133 3.396 3.396 0 0 0 .844.529 3.965 3.965 0 0 0-.647 3.364.747.747 0 0 0 1.445-.379c-.327-1.245.342-2.536 1.491-2.878.882-.262 1.817.113 2.33.933l.653 1.129a.746.746 0 1 0 1.293-.748l-.659-1.14z"></path>
      <path fill="url(#d1)" d="M13.465 14.683a.746.746 0 0 0-.874.592 2.171 2.171 0 0 1-.292.739c-.069.108-.148.21-.234.302a1.913 1.913 0 0 1-.596.429 1.77 1.77 0 0 1-1.085.114 1.78 1.78 0 0 1-.66-.297 1.98 1.98 0 0 1-.514-.548 2.137 2.137 0 0 1-.292-.739.748.748 0 0 0-.874-.593.748.748 0 0 0-.593.874 3.673 3.673 0 0 0 .327.956c-.23.224-.518.373-.841.428a1.78 1.78 0 0 1-1.345-.334.749.749 0 0 0-1.043.169.748.748 0 0 0 .17 1.043 3.3 3.3 0 0 0 1.936.64 3.058 3.058 0 0 0 2.067-.786c.044.034.086.071.13.103.182.13.375.242.575.332a3.2 3.2 0 0 0 1.328.285 3.219 3.219 0 0 0 1.902-.617 3.515 3.515 0 0 0 1.208-1.56c.084-.21.15-.432.192-.658a.746.746 0 0 0-.592-.874z"></path>
      <path fill="url(#e1)" d="M12.64 20.368a1.897 1.897 0 0 1-.639.358 1.785 1.785 0 0 1-.736.067 1.837 1.837 0 0 1-.334-.077l-.025-.01c-1.54-.458-3.159.18-4.03 1.586l-.013.02-.66 1.14a.747.747 0 0 0 1.293.747l.654-1.129c.513-.82 1.449-1.194 2.33-.932 1.149.342 1.818 1.633 1.491 2.877a.746.746 0 1 0 1.445.38 3.969 3.969 0 0 0-.647-3.364 3.375 3.375 0 0 0 .844-.53.746.746 0 1 0-.973-1.133z"></path>
    </g>
  </g>
  <g class="st0" id="aptitude_course_mweb">
    <defs>
      <linearGradient id="a2" x1=".386%" x2="99.728%" y1=".471%" y2="99.644%">
        <stop offset=".018%" stop-color="#46B6EA"></stop>
        <stop offset="49.543%" stop-color="#C471ED"></stop>
        <stop offset="100%" stop-color="#F1546B"></stop>
      </linearGradient>
      <linearGradient id="b2" x1=".368%" x2="99.728%" y1="42.371%" y2="57.643%">
        <stop offset=".018%" stop-color="#46B6EA"></stop>
        <stop offset="49.543%" stop-color="#C471ED"></stop>
        <stop offset="100%" stop-color="#F1546B"></stop>
      </linearGradient>
      <linearGradient id="c2" x1=".368%" x2="99.728%" y1="22.686%" y2="77.367%">
        <stop offset=".018%" stop-color="#46B6EA"></stop>
        <stop offset="49.543%" stop-color="#C471ED"></stop>
        <stop offset="100%" stop-color="#F1546B"></stop>
      </linearGradient>
      <linearGradient id="d2" x1=".368%" x2="99.728%" y1="42.37%" y2="57.645%">
        <stop offset=".018%" stop-color="#46B6EA"></stop>
        <stop offset="49.543%" stop-color="#C471ED"></stop>
        <stop offset="100%" stop-color="#F1546B"></stop>
      </linearGradient>
      <linearGradient id="e2" x1=".368%" x2="99.728%" y1="22.684%" y2="77.369%">
        <stop offset=".018%" stop-color="#46B6EA"></stop>
        <stop offset="49.543%" stop-color="#C471ED"></stop>
        <stop offset="100%" stop-color="#F1546B"></stop>
      </linearGradient>
    </defs>
    <g class="st0" fill="none">
      <path fill="url(#a2)" d="M24 12.578c0-1.493-.74-2.862-1.89-3.59.61-1.379.406-3.1-.618-4.247-.617-.69-1.435-1.082-2.312-1.11-.176-1.505-1.42-2.646-2.884-2.623a3.512 3.512 0 0 0-1.012.144A1.92 1.92 0 0 0 13.43.012c-.524.021-1.05.25-1.431.666a2.06 2.06 0 0 0-1.431-.666c-.707-.029-1.488.327-1.852 1.14a3.559 3.559 0 0 0-1.013-.144C6.24.976 4.996 2.125 4.82 3.632c-.877.028-1.695.418-2.312 1.11-1.024 1.147-1.228 2.867-.617 4.247C.74 9.715 0 11.085 0 12.578c0 1.48.729 2.84 1.863 3.57a3.455 3.455 0 0 0-.234 2.04c.295 1.606 1.667 2.778 3.201 2.85.206 1.461 1.34 2.541 2.711 2.541.451 0 .99-.038 1.458-.274.39.466.955.685 1.49.685.027 0 .054 0 .08-.002.524-.02 1.05-.25 1.431-.666.38.417.907.645 1.432.666l.079.002c.535 0 1.1-.219 1.49-.685.47.236 1.007.275 1.458.275 1.372 0 2.506-1.081 2.711-2.544 1.523-.085 2.878-1.253 3.171-2.848a3.441 3.441 0 0 0-.227-2.024C23.262 15.436 24 14.07 24 12.578zM10.524 22.869c-.394.013-.834-.216-.89-.913a.56.56 0 0 0-1.117.09c.007.079.017.155.029.228-.27.16-.669.185-1.005.185-.787 0-1.467-.676-1.601-1.563.899-.28 1.547-.925 1.81-1.83a.558.558 0 1 0-1.074-.313c-.238.815-.894 1.075-1.403 1.15-1.157.169-2.32-.71-2.542-1.917a2.339 2.339 0 0 1 .282-1.624.555.555 0 0 0 .158-.215l.01-.036c.043-.055.085-.111.132-.165a.559.559 0 1 0-.835-.746l-.008.01c-.822-.527-1.35-1.53-1.35-2.632 0-1.11.537-2.122 1.37-2.645l.018.023.437.49a.561.561 0 0 0 .836-.746l-.437-.49a2.414 2.414 0 0 1-.215-.282l-.022-.034c-.668-1.028-.59-2.48.237-3.407.425-.476.984-.738 1.576-.738.591 0 1.15.262 1.576.738a.559.559 0 1 0 .835-.745 3.309 3.309 0 0 0-1.404-.946c.094-.944.842-1.668 1.725-1.668h.031c.386.008.65.053.833.149v.213a.56.56 0 1 0 1.12 0v-.46c.061-.686.498-.916.888-.899.456.018.916.363.916 1.09v.523c0 .845-.631 1.534-1.407 1.534a.56.56 0 1 0 0 1.12c.52 0 1.005-.167 1.407-.451V7.57a2.422 2.422 0 0 0-1.407-.451c-.501 0-.968.156-1.361.421l-.016.01-.041.027c-.013.01-.027.016-.04.026a2.014 2.014 0 0 1-1.568.447 2.099 2.099 0 0 1-1.414-.877.56.56 0 0 0-.91.653A3.209 3.209 0 0 0 7.294 9.19c.093 0 .186-.004.278-.013a2.784 2.784 0 0 0-.066.596.56.56 0 1 0 1.12 0c0-.846.631-1.534 1.407-1.534s1.407.688 1.407 1.534V21.78c0 .727-.46 1.07-.916 1.09zM21.492 15.2a.56.56 0 0 0-.836.745c.076.086.143.175.205.266l.023.035c.341.517.469 1.122.355 1.74-.222 1.208-1.387 2.086-2.543 1.916-.416-.06-1.152-.29-1.402-1.15a.56.56 0 0 0-1.074.314c.266.914.925 1.564 1.84 1.838-.139.884-.817 1.555-1.601 1.555-.336 0-.736-.025-1.005-.185.012-.074.022-.15.029-.229a.56.56 0 0 0-1.117-.09c-.056.698-.495.927-.89.914-.456-.019-.916-.363-.916-1.09V9.773c0-.845.631-1.534 1.407-1.534s1.407.689 1.407 1.534a.56.56 0 1 0 1.12 0c0-.205-.024-.403-.066-.595a3.024 3.024 0 0 0 .722-.019 3.21 3.21 0 0 0 2.167-1.332.561.561 0 0 0-.91-.654 2.102 2.102 0 0 1-1.415.878 2.022 2.022 0 0 1-1.568-.447c-.012-.01-.026-.017-.04-.026l-.041-.028-.015-.009a2.42 2.42 0 0 0-1.361-.422c-.52 0-1.005.167-1.407.451V4.946c.402.285.886.451 1.407.451a.56.56 0 1 0 0-1.12c-.776 0-1.407-.688-1.407-1.534V2.22c0-.727.46-1.07.916-1.09.394-.011.827.214.888.9v.46a.56.56 0 1 0 1.12 0v-.214c.183-.095.447-.14.833-.148.89-.016 1.66.713 1.756 1.667-.526.18-1.007.5-1.405.946a.559.559 0 1 0 .835.746c.426-.476.985-.738 1.577-.738.591 0 1.151.262 1.576.738.827.927.905 2.377.238 3.406a2.624 2.624 0 0 1-.238.316l-.437.49a.56.56 0 0 0 .835.746l.438-.49.018-.022c.833.522 1.37 1.534 1.37 2.645 0 1.11-.537 2.122-1.37 2.644l-.018-.022z"></path>
      <path fill="url(#b2)" d="M19.807 12.454c-.306.22-.664.31-1.01.25a1.169 1.169 0 0 1-.63-.32 2.745 2.745 0 0 0 .245-.716.56.56 0 1 0-1.1-.212 1.632 1.632 0 0 1-.219.555 1.54 1.54 0 0 1-.386.41 1.338 1.338 0 0 1-.496.223 1.31 1.31 0 0 1-1.05-.222 1.59 1.59 0 0 1-.21-.185 1.682 1.682 0 0 1-.175-.226 1.667 1.667 0 0 1-.219-.555.56.56 0 1 0-1.1.211 2.75 2.75 0 0 0 .374.944 2.642 2.642 0 0 0 .677.72 2.388 2.388 0 0 0 .91.407 2.413 2.413 0 0 0 1.512-.158c.15-.068.295-.151.432-.25.033-.023.064-.05.097-.077.32.288.713.482 1.151.556.133.023.267.034.4.034.51 0 1.015-.165 1.452-.48a.56.56 0 0 0-.655-.909z"></path>
      <path fill="url(#c2)" d="M18.853 16.733l-.01-.014c-.653-1.055-1.868-1.533-3.022-1.19l-.02.007a1.29 1.29 0 0 1-.802.008 1.399 1.399 0 0 1-.479-.268.56.56 0 1 0-.73.85c.127.108.265.205.409.286.073.04.148.077.224.11a2.974 2.974 0 0 0-.485 2.523.56.56 0 0 0 1.084-.284c-.246-.933.256-1.902 1.118-2.158.661-.197 1.362.084 1.748.7l.49.846a.56.56 0 0 0 .969-.561l-.494-.855z"></path>
      <path fill="url(#d2)" d="M10.099 11.012a.56.56 0 0 0-.656.444 1.667 1.667 0 0 1-.219.555 1.54 1.54 0 0 1-.386.41 1.34 1.34 0 0 1-.496.223 1.31 1.31 0 0 1-1.049-.222 1.555 1.555 0 0 1-.605-.966.56.56 0 0 0-1.1.211 2.73 2.73 0 0 0 .245.717c-.172.168-.388.28-.63.321a1.339 1.339 0 0 1-1.01-.25.56.56 0 0 0-.654.908c.436.315.94.48 1.452.48a2.337 2.337 0 0 0 1.551-.589c.032.026.064.053.098.078a2.524 2.524 0 0 0 .91.407 2.405 2.405 0 0 0 1.031 0 2.479 2.479 0 0 0 1.284-.735 2.597 2.597 0 0 0 .534-.843c.063-.158.112-.324.144-.493a.56.56 0 0 0-.444-.656z"></path>
      <path fill="url(#e2)" d="M9.48 15.276a1.424 1.424 0 0 1-.479.269 1.4 1.4 0 0 1-.274.054 1.258 1.258 0 0 1-.528-.062l-.02-.007c-1.154-.344-2.368.134-3.023 1.189l-.009.015-.494.854a.56.56 0 0 0 .969.561l.49-.846c.386-.615 1.087-.896 1.748-.7.862.257 1.364 1.225 1.118 2.159a.559.559 0 0 0 .542.702.561.561 0 0 0 .542-.418 2.977 2.977 0 0 0-.485-2.523 2.546 2.546 0 0 0 .633-.397.561.561 0 0 0-.73-.85z"></path>
    </g>
  </g>
  <g class="st0" id="aptitude_session_dweb">
    <g class="st0" fill-opacity=".2">
      <path d="M110 57.649c0-6.842-3.392-13.12-8.665-16.452 2.798-6.321 1.863-14.207-2.83-19.465-2.827-3.168-6.575-4.96-10.594-5.088C87.102 9.742 81.4 4.513 74.688 4.621c-1.427.027-3.064.15-4.638.661-1.664-3.73-5.234-5.362-8.49-5.227A9.437 9.437 0 0 0 55 3.108 9.433 9.433 0 0 0 48.44.055c-3.241-.132-6.82 1.499-8.488 5.228-1.574-.511-3.213-.634-4.64-.662-6.71-.148-12.414 5.12-13.222 12.024-4.02.128-7.767 1.92-10.594 5.087-4.694 5.26-5.629 13.145-2.83 19.466C3.392 44.528 0 50.806 0 57.648c0 6.787 3.34 13.015 8.54 16.367-1.286 2.897-1.67 6.094-1.072 9.347 1.353 7.36 7.636 12.734 14.67 13.06.945 6.7 6.142 11.65 12.426 11.65 2.067 0 4.532-.176 6.683-1.26 1.786 2.14 4.376 3.142 6.83 3.142a9.435 9.435 0 0 0 6.924-3.061 9.435 9.435 0 0 0 6.924 3.061c2.454 0 5.044-1.002 6.83-3.14 2.151 1.083 4.616 1.259 6.683 1.259 6.285 0 11.484-4.954 12.426-11.657 6.977-.39 13.189-5.743 14.533-13.053.593-3.227.22-6.398-1.04-9.276 5.26-3.336 8.643-9.606 8.643-16.438zm-61.766 47.168c-1.805.06-3.822-.99-4.08-4.188a2.573 2.573 0 0 0-2.764-2.351 2.565 2.565 0 0 0-2.352 2.764c.029.363.074.71.13 1.049-1.233.734-3.065.848-4.606.848-3.607 0-6.722-3.099-7.34-7.167 4.122-1.28 7.094-4.24 8.302-8.386a2.567 2.567 0 1 0-4.928-1.435c-1.089 3.738-4.095 4.929-6.426 5.27-5.303.776-10.637-3.249-11.655-8.786-.482-2.622-.018-5.194 1.294-7.442a2.56 2.56 0 0 0 .723-.986c.022-.053.03-.109.048-.163.194-.256.388-.513.607-.758a2.567 2.567 0 0 0-3.831-3.417l-.036.042C7.556 67.3 5.133 62.698 5.133 57.65c0-5.09 2.46-9.728 6.278-12.124.03.034.055.07.084.104l2.004 2.247a2.564 2.564 0 0 0 3.624.205 2.566 2.566 0 0 0 .206-3.624l-2.004-2.246a11.661 11.661 0 0 1-1.086-1.446c-3.06-4.714-2.707-11.365 1.086-15.615 1.948-2.182 4.513-3.383 7.224-3.383 2.71 0 5.275 1.202 7.223 3.383a2.566 2.566 0 1 0 3.83-3.417c-1.822-2.042-4.026-3.513-6.439-4.335.432-4.324 3.864-7.645 7.91-7.645l.14.001c1.771.035 2.98.244 3.818.682v.976a2.567 2.567 0 0 0 5.133 0v-2.11c.282-3.141 2.283-4.194 4.07-4.117 2.091.083 4.2 1.66 4.2 4.994v2.395c0 3.878-2.893 7.032-6.45 7.032a2.566 2.566 0 0 0 0 5.133c2.386 0 4.605-.763 6.45-2.067v12.026a11.135 11.135 0 0 0-6.45-2.066c-2.298 0-4.436.715-6.24 1.932-.024.013-.046.032-.071.046-.062.042-.127.08-.187.124-.06.04-.124.072-.182.12-2.069 1.684-4.624 2.408-7.187 2.047-2.583-.367-4.885-1.794-6.484-4.02a2.567 2.567 0 0 0-4.17 2.994c2.424 3.374 5.951 5.544 9.932 6.108.681.096 1.36.144 2.035.144.427 0 .853-.021 1.276-.06a12.71 12.71 0 0 0-.305 2.73 2.567 2.567 0 0 0 5.134 0c0-3.877 2.893-7.031 6.45-7.031 3.556 0 6.45 3.154 6.45 7.031v55.028c-.002 3.33-2.11 4.907-4.201 4.992zm50.272-35.149a2.567 2.567 0 0 0-3.83 3.417c.346.39.653.798.939 1.215.032.056.067.11.103.162 1.563 2.37 2.15 5.14 1.63 7.971-1.019 5.538-6.358 9.563-11.657 8.786-1.908-.28-5.279-1.334-6.425-5.27a2.566 2.566 0 1 0-4.928 1.436c1.221 4.19 4.243 7.17 8.433 8.427-.632 4.048-3.739 7.125-7.334 7.125-1.54 0-3.373-.113-4.605-.847a12.6 12.6 0 0 0 .13-1.05 2.568 2.568 0 0 0-2.353-2.764 2.578 2.578 0 0 0-2.764 2.352c-.258 3.197-2.27 4.248-4.08 4.187-2.09-.084-4.2-1.66-4.2-4.994V44.795c0-3.877 2.894-7.031 6.45-7.031 3.557 0 6.45 3.154 6.45 7.03a2.568 2.568 0 0 0 5.134.001c0-.94-.112-1.85-.305-2.73.423.039.849.06 1.276.06.675 0 1.354-.048 2.035-.145 3.98-.564 7.508-2.733 9.932-6.107a2.567 2.567 0 0 0-4.17-2.995c-1.6 2.226-3.902 3.654-6.485 4.02-2.566.362-5.118-.362-7.187-2.047-.058-.047-.122-.08-.183-.12-.062-.044-.127-.083-.19-.126-.023-.012-.044-.03-.067-.042-1.803-1.218-3.943-1.933-6.24-1.933a11.13 11.13 0 0 0-6.45 2.066V22.671a11.129 11.129 0 0 0 6.45 2.067 2.567 2.567 0 0 0-.001-5.134c-3.557 0-6.45-3.154-6.45-7.031v-2.396c0-3.333 2.11-4.91 4.201-4.994 1.805-.054 3.79.977 4.07 4.117v2.11a2.567 2.567 0 0 0 5.133 0v-.976c.839-.438 2.047-.648 3.817-.682 4.084-.073 7.614 3.27 8.05 7.643-2.413.823-4.617 2.294-6.44 4.336a2.567 2.567 0 0 0 3.831 3.417c1.948-2.182 4.513-3.383 7.224-3.383 2.71 0 5.276 1.202 7.223 3.383 3.792 4.25 4.147 10.897 1.09 15.61a11.838 11.838 0 0 1-1.09 1.451l-2.004 2.246a2.567 2.567 0 0 0 3.83 3.419l2.005-2.246c.03-.033.054-.07.083-.103 3.819 2.395 6.277 7.033 6.277 12.123 0 5.089-2.458 9.726-6.275 12.121-.027-.033-.054-.067-.083-.1z"></path>
      <path d="M90.78 57.083c-1.398 1.01-3.04 1.419-4.625 1.147a5.412 5.412 0 0 1-2.89-1.471 12.385 12.385 0 0 0 1.121-3.283 2.566 2.566 0 0 0-5.041-.97c-.088.458-.22.909-.39 1.339a7.068 7.068 0 0 1-1.417 2.241c-.296.315-.62.6-.961.845a6.217 6.217 0 0 1-2.276 1.021c-.824.178-1.71.18-2.541-.001a5.978 5.978 0 0 1-1.184-.392 6.334 6.334 0 0 1-1.086-.627 6.747 6.747 0 0 1-1.767-1.884 7.28 7.28 0 0 1-1.003-2.541 2.567 2.567 0 0 0-5.042.968c.15.773.37 1.535.661 2.266.285.717.638 1.41 1.05 2.058.41.645.88 1.252 1.398 1.803a11.58 11.58 0 0 0 3.682 2.64 11.047 11.047 0 0 0 4.564.98 11.1 11.1 0 0 0 4.562-.98c.69-.31 1.354-.693 1.979-1.142.153-.11.297-.237.445-.355a10.454 10.454 0 0 0 5.278 2.546c.61.104 1.22.155 1.83.155 2.343 0 4.656-.756 6.657-2.2a2.567 2.567 0 0 0-3.004-4.163zm-4.371 19.612l-.041-.068c-2.999-4.833-8.566-7.026-13.855-5.45-.03.008-.059.022-.089.031a5.897 5.897 0 0 1-1.146.265 6.025 6.025 0 0 1-2.534-.23 6.125 6.125 0 0 1-1.154-.501 6.508 6.508 0 0 1-1.04-.728 2.567 2.567 0 1 0-3.344 3.895 11.459 11.459 0 0 0 2.899 1.819 13.634 13.634 0 0 0-2.221 11.564 2.567 2.567 0 1 0 4.965-1.304c-1.124-4.279 1.176-8.717 5.127-9.891 3.03-.902 6.243.386 8.01 3.205l2.245 3.88a2.563 2.563 0 0 0 3.506.936 2.566 2.566 0 0 0 .937-3.506l-2.265-3.917zM46.286 50.472a2.569 2.569 0 0 0-3.006 2.035c-.089.459-.22.909-.39 1.337a7.007 7.007 0 0 1-1.418 2.243 6.35 6.35 0 0 1-2.048 1.473 6.048 6.048 0 0 1-1.187.392 6.067 6.067 0 0 1-2.542 0c-.403-.088-.8-.22-1.184-.392a6.411 6.411 0 0 1-2.049-1.473 6.973 6.973 0 0 1-.803-1.038 7.38 7.38 0 0 1-1.003-2.541 2.568 2.568 0 0 0-5.042.967 12.274 12.274 0 0 0 1.122 3.285 5.406 5.406 0 0 1-2.89 1.472c-1.586.267-3.227-.139-4.625-1.148a2.567 2.567 0 1 0-3.003 4.164c2.002 1.444 4.314 2.2 6.657 2.2.61 0 1.22-.051 1.829-.155a10.473 10.473 0 0 0 5.28-2.547c.149.12.293.246.447.357.622.446 1.286.83 1.974 1.14a11.067 11.067 0 0 0 6.926.727c.75-.163 1.491-.408 2.201-.727.688-.31 1.353-.693 1.977-1.142a11.944 11.944 0 0 0 3.103-3.3 12.424 12.424 0 0 0 1.71-4.323 2.567 2.567 0 0 0-2.036-3.006zM43.45 70.015a6.45 6.45 0 0 1-1.04.729 6.138 6.138 0 0 1-1.155.5 5.93 5.93 0 0 1-1.258.25c-.426.04-.854.032-1.274-.02a5.969 5.969 0 0 1-1.146-.264c-.03-.01-.058-.023-.089-.032-5.29-1.576-10.856.617-13.855 5.45l-.04.068-2.267 3.918a2.567 2.567 0 0 0 4.443 2.571l2.245-3.88c1.767-2.82 4.98-4.106 8.009-3.206 3.951 1.175 6.251 5.613 5.128 9.892a2.567 2.567 0 0 0 4.965 1.303 13.638 13.638 0 0 0-2.22-11.563 11.545 11.545 0 0 0 2.898-1.82 2.567 2.567 0 0 0-3.344-3.896z"></path>
    </g>
  </g>
  <g class="st0" id="aptitude_session_mweb">
    <g class="st0" fill-opacity=".2"><path d="M100 52.408c0-6.22-3.083-11.927-7.877-14.956 2.544-5.747 1.694-12.915-2.573-17.696-2.57-2.88-5.977-4.51-9.631-4.625C79.184 8.857 74 4.103 67.898 4.201c-1.297.024-2.785.137-4.216.601-1.513-3.39-4.759-4.875-7.719-4.752A8.582 8.582 0 0 0 50 2.825 8.58 8.58 0 0 0 44.036.05c-2.946-.12-6.2 1.363-7.716 4.753-1.43-.465-2.92-.577-4.218-.602-6.1-.135-11.285 4.655-12.02 10.931-3.655.116-7.061 1.745-9.631 4.625-4.267 4.78-5.117 11.949-2.573 17.696C3.084 40.48 0 46.187 0 52.408c0 6.17 3.036 11.83 7.763 14.879-1.168 2.633-1.518 5.539-.974 8.497 1.23 6.69 6.942 11.576 13.336 11.872.86 6.09 5.584 10.591 11.297 10.591 1.88 0 4.12-.16 6.075-1.144 1.624 1.944 3.978 2.855 6.21 2.855a8.58 8.58 0 0 0 6.294-2.783 8.577 8.577 0 0 0 6.294 2.783c2.232 0 4.586-.91 6.21-2.855 1.955.985 4.196 1.145 6.075 1.145 5.714 0 10.44-4.503 11.297-10.597 6.342-.354 11.989-5.221 13.211-11.866.54-2.934.2-5.817-.946-8.433C96.924 64.319 100 58.619 100 52.408zm-56.151 42.88c-1.641.054-3.474-.9-3.708-3.807a2.342 2.342 0 0 0-2.514-2.138 2.333 2.333 0 0 0-2.138 2.514c.026.329.068.646.118.953-1.12.667-2.786.77-4.187.77-3.28 0-6.11-2.816-6.672-6.515 3.747-1.162 6.449-3.854 7.547-7.623a2.334 2.334 0 0 0-4.48-1.305c-.99 3.398-3.723 4.481-5.842 4.791-4.821.705-9.67-2.953-10.596-7.987a9.758 9.758 0 0 1 1.176-6.766c.279-.234.51-.535.658-.896.02-.048.027-.099.044-.148.176-.233.352-.466.551-.689a2.333 2.333 0 1 0-3.482-3.107l-.033.039c-3.422-2.193-5.624-6.376-5.624-10.966 0-4.627 2.236-8.843 5.707-11.021.027.03.05.064.076.094l1.822 2.042c.46.516 1.1.78 1.741.78a2.334 2.334 0 0 0 1.741-3.888l-1.822-2.042a10.681 10.681 0 0 1-.987-1.314c-2.782-4.286-2.461-10.332.987-14.195 1.77-1.984 4.103-3.076 6.567-3.076 2.464 0 4.796 1.093 6.566 3.076a2.333 2.333 0 1 0 3.482-3.107c-1.656-1.856-3.66-3.193-5.853-3.941.392-3.93 3.512-6.95 7.19-6.95l.129.001c1.609.032 2.708.222 3.47.62v.888a2.333 2.333 0 1 0 4.666 0V8.457c.256-2.856 2.076-3.814 3.7-3.744 1.901.076 3.818 1.51 3.818 4.54v2.178c0 3.525-2.63 6.392-5.863 6.392a2.333 2.333 0 0 0 0 4.667c2.169 0 4.186-.693 5.863-1.879v10.933a10.12 10.12 0 0 0-5.863-1.879c-2.09 0-4.033.65-5.673 1.757-.022.012-.042.03-.065.042-.056.038-.115.073-.17.112-.055.037-.113.066-.165.109-1.881 1.532-4.204 2.19-6.534 1.861-2.348-.333-4.441-1.63-5.894-3.655a2.334 2.334 0 1 0-3.791 2.723c2.203 3.067 5.41 5.04 9.03 5.552a12.812 12.812 0 0 0 3.009.077 11.518 11.518 0 0 0-.277 2.482 2.334 2.334 0 0 0 4.667 0c0-3.525 2.63-6.392 5.863-6.392 3.233 0 5.863 2.867 5.863 6.392V90.75c0 3.028-1.918 4.461-3.818 4.538zM89.55 63.335a2.333 2.333 0 0 0-3.482 3.106c.315.354.594.725.854 1.104.029.052.061.1.093.148 1.421 2.154 1.955 4.673 1.481 7.246-.925 5.035-5.779 8.694-10.596 7.988-1.734-.254-4.799-1.214-5.841-4.791a2.332 2.332 0 1 0-4.48 1.305c1.11 3.809 3.857 6.518 7.667 7.661-.575 3.68-3.4 6.477-6.668 6.477-1.4 0-3.066-.102-4.186-.77.05-.308.092-.624.118-.954a2.334 2.334 0 0 0-2.139-2.513 2.343 2.343 0 0 0-2.513 2.138c-.234 2.907-2.064 3.862-3.708 3.807-1.901-.077-3.818-1.51-3.818-4.54V40.723c0-3.525 2.63-6.392 5.863-6.392 3.233 0 5.863 2.867 5.863 6.392a2.334 2.334 0 0 0 4.667 0c0-.854-.101-1.682-.277-2.482a12.812 12.812 0 0 0 3.01-.077c3.619-.513 6.826-2.485 9.029-5.552a2.334 2.334 0 0 0-3.791-2.723c-1.454 2.024-3.547 3.322-5.895 3.655-2.333.329-4.653-.33-6.534-1.861-.053-.043-.11-.072-.166-.11-.057-.04-.116-.075-.173-.114-.021-.011-.04-.028-.061-.038-1.64-1.107-3.584-1.758-5.673-1.758-2.169 0-4.186.694-5.864 1.879V20.61a10.123 10.123 0 0 0 5.864 1.879 2.334 2.334 0 0 0 0-4.667c-3.234 0-5.864-2.867-5.864-6.392V9.252c0-3.03 1.918-4.463 3.819-4.54 1.64-.05 3.445.888 3.7 3.743v1.918a2.334 2.334 0 0 0 4.667 0v-.888c.762-.398 1.86-.588 3.469-.62 3.713-.066 6.922 2.972 7.319 6.949-2.194.748-4.198 2.085-5.854 3.941a2.333 2.333 0 1 0 3.482 3.107c1.77-1.984 4.102-3.076 6.567-3.076 2.464 0 4.796 1.093 6.567 3.076 3.446 3.863 3.769 9.906.99 14.191a10.932 10.932 0 0 1-.99 1.319l-1.822 2.042a2.333 2.333 0 1 0 3.482 3.108l1.822-2.042c.027-.03.049-.064.076-.094 3.471 2.178 5.706 6.394 5.706 11.021 0 4.626-2.235 8.842-5.704 11.02l-.076-.092z"/><path d="M82.527 51.893c-1.271.918-2.764 1.29-4.204 1.043a4.915 4.915 0 0 1-2.628-1.337 11.16 11.16 0 0 0 1.019-2.984 2.333 2.333 0 1 0-4.582-.882 6.697 6.697 0 0 1-.912 2.311c-.215.337-.46.655-.731.943a6.08 6.08 0 0 1-.874.768 5.675 5.675 0 0 1-.99.572c-.348.156-.71.276-1.078.356a5.522 5.522 0 0 1-2.311 0 5.517 5.517 0 0 1-2.063-.926 6.124 6.124 0 0 1-1.606-1.713 6.586 6.586 0 0 1-.912-2.31 2.334 2.334 0 0 0-4.584.879 11.295 11.295 0 0 0 1.556 3.932 10.961 10.961 0 0 0 2.822 3.002c.565.405 1.169.754 1.796 1.036a10.048 10.048 0 0 0 6.296.661c.683-.149 1.356-.37 2-.66.626-.282 1.231-.63 1.799-1.039.14-.1.27-.215.405-.322a9.509 9.509 0 0 0 4.798 2.314c.554.095 1.11.141 1.664.141 2.13 0 4.232-.687 6.051-2a2.334 2.334 0 0 0-2.731-3.785zm-3.974 17.83l-.037-.062c-2.726-4.394-7.787-6.387-12.595-4.955-.028.008-.054.02-.081.029-.34.114-.69.196-1.042.24a5.236 5.236 0 0 1-1.161.018 5.4 5.4 0 0 1-2.192-.682 5.845 5.845 0 0 1-.945-.662 2.331 2.331 0 0 0-3.29.25 2.332 2.332 0 0 0 .25 3.29c.528.454 1.1.855 1.701 1.192.304.17.616.324.934.462a12.397 12.397 0 0 0-2.019 10.513 2.333 2.333 0 1 0 4.514-1.185c-1.022-3.89 1.07-7.924 4.661-8.992 2.754-.82 5.676.351 7.282 2.914l2.04 3.528a2.333 2.333 0 1 0 4.04-2.338l-2.06-3.56zm-36.475-23.84a2.336 2.336 0 0 0-2.733 1.85 6.688 6.688 0 0 1-.912 2.312c-.214.337-.46.654-.731.943a5.773 5.773 0 0 1-1.862 1.339 5.426 5.426 0 0 1-4.466 0 5.73 5.73 0 0 1-.987-.57 6.11 6.11 0 0 1-1.606-1.712 6.586 6.586 0 0 1-.912-2.31 2.334 2.334 0 0 0-4.584.879c.136.703.337 1.396.601 2.06.125.315.266.623.42.926a4.913 4.913 0 0 1-2.629 1.338c-1.44.243-2.932-.126-4.203-1.043a2.334 2.334 0 0 0-2.73 3.785c1.82 1.313 3.921 2 6.051 2 .554 0 1.11-.047 1.663-.14a9.538 9.538 0 0 0 4.8-2.316c.135.108.267.223.407.324a10.136 10.136 0 0 0 5.943 1.928 10.055 10.055 0 0 0 4.149-.891 10.42 10.42 0 0 0 1.797-1.038 10.875 10.875 0 0 0 2.82-3.001c.374-.588.695-1.217.955-1.871.263-.662.465-1.354.6-2.059a2.335 2.335 0 0 0-1.851-2.733zM39.5 63.65a5.878 5.878 0 0 1-.946.663 5.436 5.436 0 0 1-3.351.664 5.43 5.43 0 0 1-1.042-.241l-.081-.029c-4.809-1.432-9.87.561-12.595 4.955l-.038.062-2.06 3.561a2.333 2.333 0 0 0 4.04 2.338l2.04-3.528c1.606-2.562 4.528-3.732 7.281-2.914 3.592 1.068 5.683 5.102 4.662 8.992a2.335 2.335 0 0 0 4.514 1.185c.99-3.771.116-7.633-2.02-10.512.32-.138.631-.293.935-.463.6-.337 1.172-.738 1.701-1.192a2.332 2.332 0 0 0 .25-3.29 2.331 2.331 0 0 0-3.29-.251z"/></g>
  </g>
  <g class="st0" id="arabic_course_dweb">
    <defs>
      <linearGradient id="a3" x1="0%" y1="0%" y2="100%">
        <stop offset="0%" stop-color="#6952A5"></stop>
        <stop offset="100%" stop-color="#E6ABC7"></stop>
      </linearGradient>
      <linearGradient id="b3" x1="18.413%" x2="81.587%" y1="0%" y2="100%">
        <stop offset="0%" stop-color="#6952A5"></stop>
        <stop offset="100%" stop-color="#E6ABC7"></stop>
      </linearGradient>
    </defs>
    <g class="st0" fill="none" fill-rule="evenodd">
      <path fill="url(#a3)" fill-rule="nonzero" d="M16 31.833C7.267 31.833.167 24.733.167 16S7.267.167 16 .167 31.833 7.267 31.833 16 24.733 31.833 16 31.833zm0-30C8.2 1.833 1.833 8.2 1.833 16S8.2 30.167 16 30.167 30.167 23.8 30.167 16 23.8 1.833 16 1.833z"></path>
      <path fill="url(#b3)" d="M24 22.467c-.533.8-1.767 1.433-3.667 1.933-1.6.4-3.133.633-4.6.633-.9 0-1.733-.1-2.466-.3-.734-.2-1.367-.5-1.9-.866a4.246 4.246 0 0 1-1.234-1.334c-.3-.533-.433-1.1-.433-1.733 0-.733.2-1.533.633-2.4.434-.867.9-1.6 1.4-2.167.5-.566.834-.933 1.034-1.1.2-.133.366-.266.5-.333-1.434-.333-2.134-1-2.134-2 0-.7.334-1.433 1.034-2.2.766-.8 1.6-1.2 2.466-1.2.267 0 .534.067.867.167.3.1.6.233.9.4.267.133.533.333.7.533.2.2.3.4.3.6 0 .033-.033.033-.067.033-.533-.2-1.2-.3-1.966-.3-.3 0-.634.034-.934.1-.3.067-.6.167-.866.267a1.72 1.72 0 0 0-.634.4.583.583 0 0 0 0 .933c.167.134.367.3.6.4.234.1.5.2.767.3.267.067.533.1.767.1.566 0 1.333-.166 2.3-.5.1-.033.3-.133.666-.266.367-.134.867-.334 1.5-.567l-.466 1.8-.1.033c-.334 0-1.067.267-2.2.734C12.9 16.1 11 18.033 11 20.333c0 .4.067.767.167 1.167.366 1.2 2.333 1.833 5.9 1.833.433 0 .966 0 1.566-.033.6-.033 1.334-.067 2.134-.167 1.9-.266 3-.466 3.233-.666zM12.333 8l-.866 1.667-1.8-1L10.5 7l1.833 1z"></path>
    </g>
  </g>
  <g class="st0" id="arabic_course_mweb">
    <defs>
      <linearGradient id="a4" x1="0%" y1="0%" y2="100%">
        <stop offset="0%" stop-color="#6952A5"></stop>
        <stop offset="100%" stop-color="#E6ABC7"></stop>
      </linearGradient>
      <linearGradient id="b4" x1="18.413%" x2="81.587%" y1="0%" y2="100%">
        <stop offset="0%" stop-color="#6952A5"></stop>
        <stop offset="100%" stop-color="#E6ABC7"></stop>
      </linearGradient>
    </defs>
    <g class="st0" fill="none" fill-rule="evenodd">
      <path fill="url(#a4)" fill-rule="nonzero" d="M12 23.875C5.45 23.875.125 18.55.125 12S5.45.125 12 .125 23.875 5.45 23.875 12 18.55 23.875 12 23.875zm0-22.5C6.15 1.375 1.375 6.15 1.375 12S6.15 22.625 12 22.625 22.625 17.85 22.625 12 17.85 1.375 12 1.375z"></path>
      <path fill="url(#b4)" d="M18 16.85c-.4.6-1.325 1.075-2.75 1.45-1.2.3-2.35.475-3.45.475-.675 0-1.3-.075-1.85-.225a4.672 4.672 0 0 1-1.425-.65c-.4-.275-.7-.625-.925-1a2.575 2.575 0 0 1-.325-1.3c0-.55.15-1.15.475-1.8.325-.65.675-1.2 1.05-1.625.375-.425.625-.7.775-.825.15-.1.275-.2.375-.25-1.075-.25-1.6-.75-1.6-1.5 0-.525.25-1.075.775-1.65.575-.6 1.2-.9 1.85-.9.2 0 .4.05.65.125.225.075.45.175.675.3.2.1.4.25.525.4.15.15.225.3.225.45 0 .025-.025.025-.05.025-.4-.15-.9-.225-1.475-.225-.225 0-.475.025-.7.075-.225.05-.45.125-.65.2-.2.075-.35.175-.475.3a.437.437 0 0 0 0 .7c.125.1.275.225.45.3.175.075.375.15.575.225.2.05.4.075.575.075.425 0 1-.125 1.725-.375.075-.025.225-.1.5-.2s.65-.25 1.125-.425l-.35 1.35-.075.025c-.25 0-.8.2-1.65.55-2.9 1.15-4.325 2.6-4.325 4.325 0 .3.05.575.125.875.275.9 1.75 1.375 4.425 1.375.325 0 .725 0 1.175-.025.45-.025 1-.05 1.6-.125 1.425-.2 2.25-.35 2.425-.5zM9.25 6L8.6 7.25 7.25 6.5l.625-1.25L9.25 6z"></path>
    </g>
  </g>
  <g class="st0" id="arabic_session_mweb">
    <title>252FB0C7-40F4-4B04-9F3E-6633849B9EAC</title>
    <g class="st0" fill-rule="evenodd" fill-opacity=".2">
      <path d="M50 99.48C22.708 99.48.52 77.291.52 50 .52 22.708 22.709.52 50 .52 77.292.52 99.48 22.709 99.48 50c0 27.292-22.188 49.48-49.48 49.48zm0-93.75C25.625 5.73 5.73 25.624 5.73 50c0 24.375 19.895 44.27 44.27 44.27 24.375 0 44.27-19.895 44.27-44.27C94.27 25.625 74.376 5.73 50 5.73z" fill-rule="nonzero"></path>
      <path d="M75 70.208c-1.667 2.5-5.52 4.48-11.458 6.042-5 1.25-9.792 1.98-14.375 1.98-2.813 0-5.417-.313-7.709-.938-2.291-.625-4.27-1.563-5.937-2.709-1.667-1.145-2.917-2.604-3.854-4.166-.938-1.667-1.355-3.438-1.355-5.417 0-2.292.625-4.792 1.98-7.5 1.354-2.708 2.812-5 4.375-6.77 1.562-1.772 2.604-2.917 3.229-3.438.625-.417 1.146-.834 1.562-1.042-4.479-1.042-6.666-3.125-6.666-6.25 0-2.188 1.041-4.48 3.229-6.875 2.396-2.5 5-3.75 7.708-3.75.834 0 1.667.208 2.709.52.937.313 1.874.73 2.812 1.25.833.418 1.667 1.043 2.188 1.668.624.624.937 1.25.937 1.874 0 .105-.104.105-.208.105-1.667-.625-3.75-.938-6.146-.938-.938 0-1.98.104-2.917.313-.937.208-1.875.52-2.708.833-.834.313-1.459.73-1.98 1.25-.52.417-.728.938-.728 1.458 0 .521.208 1.042.729 1.459.52.416 1.145.937 1.875 1.25.729.312 1.562.625 2.395.937a10.07 10.07 0 0 0 2.396.313c1.771 0 4.167-.521 7.188-1.563.312-.104.937-.416 2.083-.833 1.146-.417 2.709-1.042 4.688-1.771l-1.459 5.625-.312.104c-1.042 0-3.334.834-6.875 2.292-12.084 4.791-18.021 10.833-18.021 18.02 0 1.25.208 2.397.52 3.647 1.147 3.75 7.292 5.729 18.438 5.729 1.355 0 3.021 0 4.896-.105 1.875-.104 4.167-.208 6.667-.52 5.937-.834 9.375-1.459 10.104-2.084zM38.542 25l-2.709 5.208-5.625-3.125 2.605-5.208L38.541 25z"></path>
    </g>
  </g>
  <g class="st0" id="arabic_session_dweb">
    <g class="st0" fill-opacity=".2" fill-rule="evenodd">
      <path fill-rule="nonzero" d="M54.5 109C24.439 109 0 84.561 0 54.5S24.439 0 54.5 0 109 24.439 109 54.5 84.561 109 54.5 109zm0-103.263C27.652 5.737 5.737 27.652 5.737 54.5s21.915 48.763 48.763 48.763 48.763-21.915 48.763-48.763S81.348 5.737 54.5 5.737z"></path>
      <path d="M81 76.176c-1.823 2.75-6.04 4.928-12.535 6.647C62.995 84.198 57.753 85 52.74 85c-3.077 0-5.926-.344-8.433-1.031-2.507-.688-4.672-1.72-6.495-2.98-1.824-1.26-3.191-2.865-4.217-4.584-1.025-1.834-1.481-3.782-1.481-5.96 0-2.52.684-5.271 2.165-8.25 1.481-2.98 3.077-5.502 4.786-7.45 1.71-1.948 2.849-3.209 3.533-3.782.683-.458 1.253-.917 1.709-1.146-4.9-1.146-7.293-3.438-7.293-6.876 0-2.407 1.14-4.928 3.533-7.564 2.62-2.75 5.47-4.126 8.432-4.126.912 0 1.823.23 2.963.573 1.025.344 2.051.803 3.077 1.376.911.458 1.823 1.146 2.393 1.833.683.688 1.025 1.376 1.025 2.063 0 .115-.114.115-.228.115-1.823-.688-4.102-1.032-6.723-1.032-1.026 0-2.165.115-3.19.344-1.026.23-2.052.573-2.963.917-.912.344-1.596.802-2.166 1.375-.57.459-.797 1.032-.797 1.605s.228 1.146.797 1.604c.57.458 1.254 1.031 2.052 1.375.797.344 1.709.688 2.62 1.032a11 11 0 0 0 2.621.343c1.938 0 4.559-.573 7.863-1.719.342-.114 1.026-.458 2.28-.916 1.253-.459 2.962-1.146 5.127-1.949l-1.595 6.189-.342.115c-1.14 0-3.646.916-7.52 2.52-13.22 5.273-19.715 11.92-19.715 19.827 0 1.375.228 2.636.57 4.011 1.253 4.126 7.977 6.303 20.17 6.303 1.481 0 3.304 0 5.355-.114 2.052-.115 4.559-.23 7.294-.573 6.495-.917 10.255-1.605 11.053-2.292zM41.116 26.438l-2.963 5.73L32 28.73 34.849 23l6.267 3.438z"></path>
    </g>
  </g>
  <g class="st0" id="biology_course_dweb">
    <defs>
      <linearGradient id="a5" x1="80.812%" x2="24.147%" y1="11.821%" y2="88.267%">
        <stop offset=".058%" stop-color="#59B500"></stop>
        <stop offset="100%" stop-color="#B4D521"></stop>
      </linearGradient>
    </defs>
    <path fill="url(#a5)" d="M7.663 31.477c-.392 0-.784-.283-.855-.672a.884.884 0 0 1 .677-1.061c2.246-.53 3.778-1.556 4.563-3.112l-6.773-6.685c-1.354.601-2.388 1.768-3.243 3.608-.214.46-.713.636-1.177.46-.463-.213-.641-.708-.463-1.168 1.07-2.405 2.638-3.96 4.562-4.668 1.925-.708 4.278-.495 6.951.566-.57-4.103.107-6.968 2.032-8.453 1.817-1.415 4.705-1.45 8.055-.177-.499-3.926.428-8.347 6.416-9.761a.893.893 0 0 1 1.07.672c.106.46-.179.955-.642 1.06-2.353.567-3.886 1.628-4.634 3.29a.847.847 0 0 1 .392.212l6.38 6.295c1.355-.565 2.424-1.768 3.244-3.607.214-.46.713-.637 1.176-.46.463.212.642.708.463 1.167-1.069 2.405-2.637 3.961-4.562 4.669-1.925.672-4.277.495-6.95-.566.57 4.102-.107 6.967-2.032 8.453-1.818 1.414-4.705 1.45-8.056.176.5 3.926-.427 8.347-6.415 9.762h-.179zm-.285-11.954l5.204 5.163c.143-1.096.071-2.37-.25-3.855-1.853-.884-3.528-1.344-4.954-1.308zm6.523.07c2.067.955 3.956 1.344 5.418 1.203l-5.739-5.73c-.107 1.274 0 2.794.321 4.527zm.143-6.542l7.128 7.073c.036 0 .036-.035.072-.035.499-.39.855-.92 1.105-1.592L15.86 12.06a.878.878 0 0 1-.25-.707l-.534.318c-.427.319-.748.814-1.033 1.38zm3.243-2.123l5.49 5.447c.07-1.202-.036-2.617-.357-4.244-1.925-.849-3.707-1.273-5.133-1.203zm6.701 0c1.854.885 3.529 1.31 4.919 1.31l-5.133-5.094c-.142 1.097-.071 2.37.214 3.784z"></path>
  </g>
  <g class="st0" id="biology_course_mweb">
    <defs>
      <linearGradient id="a6" x1="78.18%" x2="22.062%" y1="11.222%" y2="88.867%">
        <stop offset=".058%" stop-color="#59B500"></stop>
        <stop offset="100%" stop-color="#B4D521"></stop>
      </linearGradient>
    </defs>
    <path fill="url(#a6)" d="M5.553 24c-.297 0-.594-.216-.648-.512a.677.677 0 0 1 .513-.81c1.699-.404 2.858-1.186 3.451-2.372l-5.123-5.097c-1.025.458-1.807 1.348-2.454 2.75-.162.351-.54.486-.89.351-.35-.162-.485-.54-.35-.89.808-1.833 1.995-3.02 3.451-3.56 1.456-.539 3.236-.377 5.259.432-.432-3.128.08-5.312 1.537-6.445 1.375-1.078 3.56-1.105 6.094-.135-.378-2.993.324-6.364 4.854-7.442a.674.674 0 0 1 .809.512c.08.35-.135.728-.485.809-1.78.431-2.94 1.24-3.506 2.508.108.027.216.08.297.162l4.827 4.8c1.024-.432 1.833-1.349 2.453-2.75.162-.351.54-.486.89-.351.35.161.486.539.35.89-.808 1.833-1.995 3.02-3.45 3.559-1.457.512-3.237.378-5.26-.431.432 3.128-.08 5.312-1.536 6.444-1.376 1.08-3.56 1.106-6.095.135.378 2.994-.323 6.364-4.854 7.443h-.134zm-.216-9.115l3.937 3.937c.108-.835.054-1.806-.189-2.939-1.402-.674-2.67-1.025-3.748-.998zm4.935.054c1.564.728 2.993 1.025 4.099.917l-4.342-4.368c-.08.97 0 2.13.243 3.451zm.108-4.988l5.393 5.393c.027 0 .027-.027.054-.027.377-.297.647-.701.836-1.214l-4.908-4.907a.671.671 0 0 1-.189-.54l-.404.243c-.324.243-.567.62-.782 1.052zm2.453-1.618l4.153 4.152c.054-.916-.027-1.995-.27-3.236-1.456-.647-2.804-.97-3.883-.916zm5.07 0c1.402.674 2.67.997 3.721.997l-3.883-3.883c-.108.836-.054 1.807.162 2.886z"></path>
  </g>
  <g class="st0" id="biology_session_mweb">
    <title>BF4E34A8-FAE5-48EF-BC47-AD2BFB7F5D18</title>
    <path d="M21.287 88.119c-1.089 0-2.178-.792-2.376-1.881-.297-1.288.495-2.674 1.881-2.97 6.238-1.486 10.495-4.357 12.673-8.714L14.653 55.842c-3.762 1.683-6.633 4.95-9.01 10.099-.593 1.287-1.98 1.782-3.267 1.287-1.287-.594-1.782-1.98-1.287-3.268 2.97-6.732 7.327-11.089 12.673-13.069 5.347-1.98 11.882-1.386 19.307 1.584-1.584-11.485.297-19.505 5.644-23.663 5.05-3.96 13.07-4.06 22.376-.495C59.703 17.327 62.277 4.95 78.911.99c1.287-.297 2.673.495 2.97 1.881.297 1.287-.495 2.674-1.782 2.97-6.535 1.585-10.792 4.555-12.871 9.209a2.36 2.36 0 0 1 1.089.594L86.04 33.267c3.762-1.584 6.732-4.95 9.01-10.099.594-1.287 1.98-1.782 3.267-1.287 1.287.594 1.782 1.98 1.287 3.268-2.97 6.732-7.327 11.089-12.673 13.069-5.347 1.881-11.881 1.386-19.307-1.584 1.584 11.485-.297 19.505-5.644 23.663-5.05 3.96-13.07 4.06-22.376.495 1.386 10.99-1.188 23.366-17.822 27.327h-.495zm-.792-33.466L34.95 69.11c.397-3.07.199-6.634-.693-10.792-5.148-2.475-9.802-3.763-13.762-3.664zm18.119.198c5.742 2.674 10.99 3.763 15.05 3.367l-15.941-16.04c-.297 3.565 0 7.822.89 12.673zm.396-18.316l19.802 19.802c.099 0 .099-.1.198-.1 1.386-1.088 2.376-2.574 3.07-4.455l-18.02-18.02c-.496-.495-.793-1.287-.694-1.98l-1.485.891c-1.188.891-2.079 2.277-2.871 3.862zm9.01-5.94l15.247 15.247c.198-3.367-.099-7.327-.99-11.882-5.346-2.376-10.297-3.564-14.257-3.366zm18.614 0c5.148 2.474 9.802 3.662 13.663 3.662L66.04 20c-.396 3.07-.198 6.634.594 10.594z" fill-opacity=".2"></path>
  </g>
  <g class="st0" id="biology_session_dweb">
    <path fill-opacity=".2" d="M23.157 99c-1.236 0-2.472-.899-2.696-2.135-.337-1.46.561-3.034 2.135-3.37 7.078-1.686 11.91-4.944 14.382-9.888L15.629 62.37c-4.27 1.91-7.528 5.618-10.225 11.46-.674 1.461-2.247 2.023-3.707 1.461-1.461-.674-2.023-2.247-1.461-3.708C3.606 63.944 8.551 59 14.618 56.753s13.483-1.573 21.91 1.798c-1.798-13.034.337-22.135 6.405-26.854 5.73-4.495 14.831-4.607 25.393-.562C66.753 18.663 69.674 4.618 88.55.124c1.46-.337 3.033.561 3.37 2.134.337 1.461-.561 3.034-2.022 3.371-7.416 1.798-12.247 5.169-14.607 10.45.45.112.899.337 1.236.674l20.112 20c4.27-1.798 7.64-5.618 10.225-11.46.674-1.462 2.247-2.023 3.708-1.462 1.46.675 2.023 2.248 1.46 3.708-3.37 7.64-8.314 12.585-14.381 14.832-6.068 2.135-13.483 1.573-21.91-1.798 1.797 13.034-.338 22.135-6.405 26.854-5.73 4.494-14.831 4.607-25.393.562C45.517 80.46 42.596 94.506 23.719 99h-.562zm-.899-37.978l16.405 16.405c.45-3.483.225-7.528-.787-12.247-5.842-2.81-11.123-4.27-15.618-4.158zm20.562.225c6.517 3.034 12.472 4.27 17.079 3.82l-18.09-18.202c-.337 4.045 0 8.877 1.011 14.382zm.45-20.786l22.472 22.472c.112 0 .112-.113.224-.113 1.573-1.236 2.697-2.921 3.483-5.056L49 37.314c-.562-.561-.899-1.46-.787-2.247l-1.685 1.012c-1.348 1.01-2.36 2.584-3.258 4.382zm10.224-6.742l17.304 17.303c.224-3.82-.113-8.314-1.124-13.483-6.067-2.696-11.685-4.045-16.18-3.82zm21.124 0c5.843 2.81 11.124 4.157 15.506 4.157l-16.18-16.18c-.45 3.484-.225 7.529.674 12.023z"></path>
  </g>
  <g class="st0" id="chemistry_course_dweb">
    <defs>
      <linearGradient id="a7" x1="15.01%" x2="84.99%" y1="0%" y2="100%">
        <stop offset="0%" stop-color="#964FF1"></stop>
        <stop offset="100%" stop-color="#3996E0"></stop>
      </linearGradient>
    </defs>
    <path fill="url(#a7)" d="M7.64.001c-.378.02-.717.242-.888.582-.172.34-.151.746.055 1.067.206.32.565.505.942.485h1.057v10.01L.86 25.755l-.011.012c-.4.677-.822 1.597-.848 2.644C-.046 30.293 1.407 32 3.347 32h20.075c1.94 0 3.393-1.707 3.346-3.589-.026-1.047-.447-1.967-.847-2.644l-.011-.011-7.947-13.61V2.134h1.057c.38.005.735-.197.927-.53a1.075 1.075 0 0 0 0-1.075A1.055 1.055 0 0 0 19.02 0h-2.113c-.584 0-1.057.478-1.057 1.067v11.377c0 .188.05.372.143.534l5.635 9.655c-1.957 1.094-3.45 1.544-4.721 1.544-1.833 0-3.266-.567-5.195-1.2-1.597-.523-3.513-1.051-6.065-1.222l5.13-8.777c.092-.162.142-.346.142-.534V1.068c0-.589-.473-1.066-1.056-1.067H7.639zm7.506 14.933c-.778 0-1.41.637-1.41 1.422 0 .786.632 1.422 1.41 1.422.778 0 1.408-.636 1.408-1.422 0-.785-.63-1.422-1.408-1.422zm-1.761 3.911c-.778 0-1.41.637-1.41 1.422 0 .786.632 1.422 1.41 1.422.778 0 1.408-.636 1.408-1.422 0-.785-.63-1.422-1.408-1.422zm-8.948 4.989c2.898.054 4.845.597 6.614 1.177 1.865.612 3.598 1.3 5.856 1.3 1.763 0 3.622-.609 5.8-1.833l1.387 2.367.01.01c.246.415.542 1.251.55 1.612.017.649-.641 1.4-1.232 1.4H3.347c-.59 0-1.249-.751-1.233-1.4.01-.36.305-1.197.55-1.611l.012-.011 1.76-3.011z"></path>
  </g>
  <g class="st0" id="chemistry_course_mweb">
    <title>891B1954-A93B-4795-A2F9-5CFE515ABB7E</title>
    <defs>
      <linearGradient x1="15.869%" y1="0%" x2="84.131%" y2="100%" id="a8">
        <stop stop-color="#964FF1" offset="0%"></stop>
        <stop stop-color="#3996E0" offset="100%"></stop>
      </linearGradient>
    </defs>
    <path d="M5.659.001A.783.783 0 0 0 5 .437a.816.816 0 0 0 .041.8c.152.24.419.379.698.364h.783v7.508L.637 19.317l-.008.008C.332 19.833.02 20.523 0 21.308-.034 22.72 1.042 24 2.479 24h14.87c1.438 0 2.514-1.28 2.48-2.692-.02-.785-.332-1.475-.629-1.983l-.008-.008-5.886-10.208V1.601h.783a.78.78 0 0 0 .687-.397.815.815 0 0 0 0-.806.78.78 0 0 0-.687-.397h-1.566a.792.792 0 0 0-.782.8v8.533c0 .14.037.278.106.4l4.174 7.241c-1.45.82-2.555 1.159-3.498 1.159-1.357 0-2.418-.426-3.848-.9-1.182-.393-2.601-.789-4.492-.917l3.8-6.583a.814.814 0 0 0 .105-.4V.801c0-.442-.35-.8-.782-.8H5.74a.766.766 0 0 0-.081 0zm5.56 11.2c-.576 0-1.044.477-1.044 1.066 0 .59.468 1.067 1.044 1.067.576 0 1.044-.478 1.044-1.067s-.468-1.066-1.044-1.066zm-1.304 2.933c-.577 0-1.044.477-1.044 1.066 0 .59.467 1.067 1.044 1.067.576 0 1.043-.478 1.043-1.067s-.467-1.066-1.043-1.066zm-6.629 3.741c2.148.041 3.59.448 4.9.884 1.381.458 2.665.975 4.337.975 1.307 0 2.684-.457 4.297-1.375l1.027 1.775a.794.794 0 0 0 .008.008c.182.31.401.938.408 1.208.012.487-.476 1.05-.913 1.05H2.48c-.438 0-.926-.563-.914-1.05.007-.27.226-.898.408-1.208a.792.792 0 0 0 .008-.008l1.304-2.259z" fill="url(#a8)"></path>
  </g>
  <g class="st0" id="chemistry_session_mweb">
    <path fill-opacity=".2" d="M23.873.005a3.303 3.303 0 0 0-2.774 1.816 3.366 3.366 0 0 0 .172 3.334 3.298 3.298 0 0 0 2.946 1.516h3.302v31.283L2.686 80.487l-.034.035C1.4 82.638.085 85.514.003 88.785-.142 94.665 4.397 100 10.46 100h62.736c6.062 0 10.601-5.335 10.455-11.215-.08-3.271-1.397-6.147-2.648-8.263l-.034-.035-24.833-42.533V6.671h3.302a3.296 3.296 0 0 0 2.898-1.653c.6-1.038.6-2.322 0-3.36A3.293 3.293 0 0 0 59.438.005h-6.604c-1.823 0-3.302 1.492-3.302 3.333v35.554c.002.585.156 1.16.447 1.666l17.61 30.172c-6.116 3.419-10.78 4.827-14.755 4.827-5.728 0-10.204-1.773-16.234-3.75-4.99-1.636-10.976-3.286-18.951-3.82l16.027-27.429c.292-.506.446-1.08.448-1.666V3.338c0-1.841-1.479-3.333-3.302-3.333h-6.604a2.82 2.82 0 0 0-.344 0zM47.33 46.669c-2.431 0-4.402 1.99-4.402 4.444 0 2.455 1.97 4.445 4.402 4.445 2.431 0 4.402-1.99 4.402-4.445 0-2.454-1.97-4.444-4.402-4.444zm-5.503 12.222c-2.431 0-4.403 1.99-4.403 4.444 0 2.454 1.972 4.444 4.403 4.444 2.431 0 4.402-1.99 4.402-4.444 0-2.455-1.97-4.444-4.402-4.444zM13.864 74.48c9.06.17 15.141 1.866 20.671 3.68 5.827 1.91 11.243 4.062 18.298 4.062 5.511 0 11.32-1.904 18.126-5.729l4.334 7.396.034.034c.767 1.294 1.692 3.908 1.72 5.035.05 2.027-2.007 4.375-3.852 4.375H10.459c-1.845 0-3.902-2.348-3.852-4.375.028-1.127.952-3.74 1.72-5.035l.034-.034 5.503-9.41z"></path>
  </g>
  <g class="st0" id="chemistry_session_dweb">
    <path fill-opacity=".25" d="M23.795.005a3.292 3.292 0 0 0-2.765 1.816 3.375 3.375 0 0 0 .171 3.334c.641 1 1.76 1.578 2.937 1.516h3.29v31.283L2.679 80.487l-.035.035C1.396 82.638.084 85.514.003 88.785-.142 94.665 4.383 100 10.425 100h62.53c6.043 0 10.567-5.335 10.421-11.215-.08-3.271-1.393-6.147-2.64-8.263l-.034-.035-24.75-42.533V6.671h3.29a3.286 3.286 0 0 0 2.89-1.653 3.37 3.37 0 0 0 0-3.36 3.284 3.284 0 0 0-2.89-1.653H52.66c-1.817 0-3.29 1.492-3.291 3.333v35.554c.001.585.155 1.16.446 1.666L67.367 70.73c-6.096 3.419-10.745 4.827-14.707 4.827-5.71 0-10.17-1.773-16.18-3.75-4.974-1.636-10.94-3.286-18.89-3.82l15.975-27.429c.29-.506.444-1.08.446-1.666V3.338c0-1.841-1.474-3.333-3.291-3.333h-6.582a2.804 2.804 0 0 0-.343 0zm23.38 46.664c-2.423 0-4.388 1.99-4.388 4.444 0 2.455 1.965 4.445 4.388 4.445s4.388-1.99 4.388-4.445c0-2.454-1.965-4.444-4.388-4.444zM41.69 58.891c-2.424 0-4.388 1.99-4.388 4.444 0 2.454 1.964 4.444 4.388 4.444 2.423 0 4.388-1.99 4.388-4.444 0-2.455-1.965-4.444-4.388-4.444zM13.819 74.48c9.03.17 15.091 1.866 20.603 3.68 5.808 1.91 11.206 4.062 18.238 4.062 5.493 0 11.283-1.904 18.066-5.729l4.32 7.396.034.034c.765 1.294 1.686 3.908 1.714 5.035.05 2.027-2 4.375-3.84 4.375H10.426c-1.84 0-3.89-2.348-3.84-4.375.028-1.127.95-3.74 1.715-5.035l.034-.034 5.485-9.41z"></path>
  </g>
  <g class="st0" id="english_course_dweb">
    <defs>
      <linearGradient id="a9" x1="7.08%" x2="93.904%" y1="1.121%" y2="100%">
        <stop offset="0%" stop-color="#61A5FF"></stop>
        <stop offset="100%" stop-color="#A8B1FE"></stop>
      </linearGradient>
      <linearGradient id="b9" x1="1.121%" y1="1.121%" y2="100%">
        <stop offset="0%" stop-color="#61A5FF"></stop>
        <stop offset="100%" stop-color="#A8B1FE"></stop>
      </linearGradient>
    </defs>
    <g class="st0" fill="none">
      <path fill="url(#a9)" d="M9.3 22.667l5.5-14.3h2.033l5.867 14.3h-2.167l-1.666-4.334h-6L11.3 22.667h-2zm4.133-5.867H18.3l-1.5-3.967c-.467-1.2-.8-2.2-1-2.966a15.858 15.858 0 0 1-.767 2.733l-1.6 4.2z"></path>
      <path fill="url(#b9)" d="M16 31.833C7.267 31.833.167 24.733.167 16S7.267.167 16 .167 31.833 7.267 31.833 16 24.733 31.833 16 31.833zm0-30C8.2 1.833 1.833 8.2 1.833 16S8.2 30.167 16 30.167 30.167 23.8 30.167 16 23.8 1.833 16 1.833z"></path>
    </g>
  </g>
  <g class="st0" id="english_course_mweb">
    <defs>
      <linearGradient id="a10" x1="7.08%" x2="93.904%" y1="1.121%" y2="100%">
        <stop offset="0%" stop-color="#61A5FF"></stop>
        <stop offset="100%" stop-color="#A8B1FE"></stop>
      </linearGradient>
      <linearGradient id="b10" x1="1.121%" y1="1.121%" y2="100%">
        <stop offset="0%" stop-color="#61A5FF"></stop>
        <stop offset="100%" stop-color="#A8B1FE"></stop>
      </linearGradient>
    </defs>
    <g class="st0" fill="none">
      <path fill="url(#a10)" d="M6.975 17L11.1 6.275h1.525L17.025 17H15.4l-1.25-3.25h-4.5L8.475 17h-1.5zm3.1-4.4h3.65L12.6 9.625c-.35-.9-.6-1.65-.75-2.225-.125.7-.325 1.375-.575 2.05l-1.2 3.15z"></path>
      <path fill="url(#b10)" d="M12 23.875C5.45 23.875.125 18.55.125 12S5.45.125 12 .125 23.875 5.45 23.875 12 18.55 23.875 12 23.875zm0-22.5C6.15 1.375 1.375 6.15 1.375 12S6.15 22.625 12 22.625 22.625 17.85 22.625 12 17.85 1.375 12 1.375z"></path>
    </g>
  </g>
  <g class="st0" id="english_session_mweb">
    <g class="st0" fill-opacity=".2">
      <path d="M28.44 70.642l17.322-44.954h6.404l18.476 44.954H63.82L58.57 57.02H39.674L34.74 70.642h-6.3zM41.458 52.2h15.327L52.06 39.73c-1.47-3.772-2.52-6.915-3.15-9.325-.524 2.934-1.364 5.763-2.414 8.592L41.457 52.2z"></path>
      <path d="M50 100C22.421 100 0 77.579 0 50S22.421 0 50 0s50 22.421 50 50-22.421 50-50 50zm0-94.737C25.368 5.263 5.263 25.368 5.263 50S25.368 94.737 50 94.737 94.737 74.632 94.737 50 74.632 5.263 50 5.263z"></path>
    </g>
  </g>
  <g class="st0" id="english_session_dweb">
    <title>479E3FC1-4FD8-4CC3-AEEF-809D7B8C7A53</title>
    <g class="st0" fill-opacity=".2">
      <path d="M31.969 77.917L50.875 28.76h6.99L78.03 77.917h-7.448L64.854 63.02H44.23l-5.385 14.896H31.97zM46.177 57.75h16.73L57.75 44.115c-1.604-4.125-2.75-7.563-3.438-10.198-.572 3.208-1.49 6.302-2.635 9.395l-5.5 14.438z"></path>
      <path d="M55 109.427C24.98 109.427.573 85.021.573 55 .573 24.98 24.979.573 55 .573c30.02 0 54.427 24.406 54.427 54.427 0 30.02-24.406 54.427-54.427 54.427zM55 6.302C28.187 6.302 6.302 28.188 6.302 55c0 26.813 21.886 48.698 48.698 48.698 26.813 0 48.698-21.885 48.698-48.698S81.813 6.302 55 6.302z"></path>
    </g>
  </g>
  <g class="st0" id="hindi_course_dweb">
    <defs>
      <linearGradient id="a11" x1="0%" y1="0%" y2="100%">
        <stop offset="0%" stop-color="#EF9FAA"></stop>
        <stop offset="100%" stop-color="#FD9184"></stop>
      </linearGradient>
      <linearGradient id="b11" x1="0%" y1="20.761%" y2="79.239%">
        <stop offset="0%" stop-color="#EF9FAA"></stop>
        <stop offset="100%" stop-color="#FD9184"></stop>
      </linearGradient>
    </defs>
    <g class="st0" fill="none">
      <path fill="url(#a11)" d="M16 0C7.175 0 0 7.175 0 16s7.175 16 16 16 16-7.175 16-16S24.825 0 16 0zm0 30.316C8.118 30.316 1.684 23.882 1.684 16 1.684 8.118 8.118 1.684 16 1.684c7.882 0 14.316 6.434 14.316 14.316 0 7.882-6.434 14.316-14.316 14.316z"></path>
      <path fill="url(#b11)" d="M7 11.588h7.612v4.995c0 .264-.034.463-.102.694-.17.662-.512 1.125-1.092 1.423a2.37 2.37 0 0 1-1.502.198c-.649-.099-1.161-.496-1.4-1.091-.17-.298-.205-.662-.136-1.158.068-.53.375-.96.887-1.224.444-.265.956-.33 1.639-.265a.443.443 0 0 0 .204.033h.103l-.034-.198c-.034-.232-.103-.463-.137-.695-.034-.198-.068-.43-.102-.661v-.1l-.069-.033c-.034 0-.068-.033-.102-.033-.034-.033-.068-.033-.102-.066l-.034-.033h-.035a4.496 4.496 0 0 0-1.877.199c-.99.363-1.741.992-2.15 1.918-.308.662-.376 1.39-.24 2.15.24 1.125.888 1.985 1.912 2.514.82.397 1.707.496 2.663.265.648-.166 1.16-.43 1.57-.827V23h1.843v-5.623c0-.265.034-.497.103-.761a2.193 2.193 0 0 1 1.092-1.356c.478-.232.99-.298 1.604-.199.615.1 1.059.43 1.332.96.136.297.205.694.17 1.157-.068.728-.443 1.191-1.16 1.489-.376.198-.82.231-1.331.165h-.103c-.034-.033-.102-.033-.136-.033h-.205l.034.198c.034.232.102.464.136.695.035.199.069.43.103.662l.034.132.137.033c.682.1 1.33.033 2.014-.165 1.126-.397 1.877-1.092 2.253-2.117.239-.695.273-1.357.136-2.117-.17-.86-.648-1.555-1.4-2.084-.546-.397-1.16-.596-1.843-.629a4.63 4.63 0 0 0-1.638.199 3.838 3.838 0 0 0-1.195.76v-2.778H24V10H7v1.588z"></path>
    </g>
  </g>
  <g class="st0" id="hindi_course_mweb">
    <title>1ED87082-4097-4AAA-89B5-8E52DE3297A1</title>
    <defs>
      <linearGradient x1="0%" y1="0%" y2="100%" id="a12">
        <stop stop-color="#EF9FAA" offset="0%"></stop>
        <stop stop-color="#FD9184" offset="100%"></stop>
      </linearGradient>
      <linearGradient x1="0%" y1="18.862%" y2="81.138%" id="b12">
        <stop stop-color="#EF9FAA" offset="0%"></stop>
        <stop stop-color="#FD9184" offset="100%"></stop>
      </linearGradient>
    </defs>
    <g class="st0" fill="none">
      <path d="M12 .125C5.45.125.125 5.45.125 12S5.45 23.875 12 23.875 23.875 18.55 23.875 12 18.55.125 12 .125zm0 22.5C6.15 22.625 1.375 17.85 1.375 12S6.15 1.375 12 1.375 22.625 6.15 22.625 12 17.85 22.625 12 22.625z" fill="url(#a12)"></path>
      <path d="M5.775 8.725h5.575V12.5c0 .2-.025.35-.075.525-.125.5-.375.85-.8 1.075-.35.175-.725.225-1.1.15a1.292 1.292 0 0 1-1.025-.825c-.125-.225-.15-.5-.1-.875.05-.4.275-.725.65-.925.325-.2.7-.25 1.2-.2.05.025.1.025.15.025h.075l-.025-.15c-.025-.175-.075-.35-.1-.525-.025-.15-.05-.325-.075-.5V10.2l-.05-.025c-.025 0-.05-.025-.075-.025-.025-.025-.05-.025-.075-.05l-.025-.025h-.025c-.475-.05-.925 0-1.375.15-.725.275-1.275.75-1.575 1.45-.225.5-.275 1.05-.175 1.625.175.85.65 1.5 1.4 1.9.6.3 1.25.375 1.95.2.475-.125.85-.325 1.15-.625v2.575h1.35V13.1c0-.2.025-.375.075-.575.125-.45.4-.8.8-1.025.35-.175.725-.225 1.175-.15.45.075.775.325.975.725.1.225.15.525.125.875-.05.55-.325.9-.85 1.125-.275.15-.6.175-.975.125h-.075c-.025-.025-.075-.025-.1-.025h-.15l.025.15c.025.175.075.35.1.525.025.15.05.325.075.5l.025.1.1.025a3.3 3.3 0 0 0 1.475-.125c.825-.3 1.375-.825 1.65-1.6.175-.525.2-1.025.1-1.6-.125-.65-.475-1.175-1.025-1.575-.4-.3-.85-.45-1.35-.475-.4-.025-.8.025-1.2.15-.35.15-.65.35-.875.575v-2.1h5.525v-1.2H5.775v1.2z" fill="url(#b12)"></path>
    </g>
  </g>
  <g class="st0" id="hindi_session_mweb">
    <title>490BB30B-1E65-433B-9229-F0AC5DE11A7C</title>
    <g class="st0" fill-opacity=".2">
      <path d="M50 .52C22.708.52.52 22.709.52 50 .52 77.292 22.709 99.48 50 99.48c27.292 0 49.48-22.188 49.48-49.48C99.48 22.708 77.291.52 50 .52zm0 93.75C25.625 94.27 5.73 74.376 5.73 50 5.73 25.625 25.624 5.73 50 5.73c24.375 0 44.27 19.895 44.27 44.27 0 24.375-19.895 44.27-44.27 44.27z"></path>
      <path d="M24.063 36.354h23.229v15.73a7.41 7.41 0 0 1-.313 2.187c-.52 2.083-1.562 3.541-3.333 4.479a7.014 7.014 0 0 1-4.584.625c-1.979-.313-3.541-1.563-4.27-3.438-.521-.937-.625-2.083-.417-3.645.208-1.667 1.146-3.021 2.708-3.855 1.355-.833 2.917-1.041 5-.833.209.104.417.104.625.104h.313l-.104-.625c-.105-.729-.313-1.458-.417-2.187-.104-.625-.208-1.354-.313-2.084V42.5l-.208-.104c-.104 0-.208-.104-.312-.104-.105-.105-.209-.105-.313-.209l-.104-.104h-.104c-1.98-.208-3.854 0-5.73.625-3.02 1.146-5.312 3.125-6.562 6.042-.937 2.083-1.146 4.375-.729 6.77.73 3.542 2.708 6.25 5.833 7.917 2.5 1.25 5.209 1.563 8.125.834 1.98-.521 3.542-1.355 4.792-2.605v10.73H52.5V54.583c0-.833.104-1.562.313-2.395.52-1.876 1.666-3.334 3.333-4.271 1.458-.73 3.02-.938 4.896-.625 1.875.312 3.229 1.354 4.062 3.02.417.938.625 2.188.521 3.646-.208 2.292-1.354 3.75-3.542 4.688-1.145.625-2.5.729-4.062.52h-.313c-.104-.103-.312-.103-.416-.103h-.625l.104.624c.104.73.312 1.459.416 2.188.105.625.209 1.354.313 2.083l.104.417.417.104c2.083.313 4.062.104 6.146-.52 3.437-1.25 5.729-3.438 6.875-6.667.729-2.188.833-4.271.416-6.667-.52-2.708-1.979-4.896-4.27-6.563-1.667-1.25-3.542-1.874-5.626-1.979a13.762 13.762 0 0 0-5 .625c-1.458.625-2.708 1.459-3.645 2.396v-8.75h23.02v-5H24.063v5z"></path>
    </g>
  </g>
  <g class="st0" id="hindi_session_dweb">
    <g class="st0" fill-opacity=".2">
      <path d="M55 .573C24.98.573.573 24.979.573 55c0 30.02 24.406 54.427 54.427 54.427 30.02 0 54.427-24.406 54.427-54.427C109.427 24.98 85.021.573 55 .573zm0 103.125C28.187 103.698 6.302 81.813 6.302 55S28.188 6.302 55 6.302c26.813 0 48.698 21.886 48.698 48.698 0 26.813-21.885 48.698-48.698 48.698z"></path>
      <path d="M26.469 39.99H52.02v17.302a8.15 8.15 0 0 1-.344 2.406c-.573 2.292-1.719 3.896-3.667 4.927-1.604.802-3.322 1.031-5.041.688-2.177-.344-3.896-1.72-4.698-3.782-.573-1.031-.688-2.291-.459-4.01.23-1.834 1.26-3.323 2.98-4.24 1.49-.916 3.208-1.146 5.5-.916.229.114.458.114.687.114h.344l-.115-.687c-.114-.802-.343-1.605-.458-2.407-.115-.687-.23-1.49-.344-2.291v-.344l-.229-.115c-.114 0-.23-.114-.344-.114-.114-.115-.229-.115-.343-.23l-.115-.114h-.115c-2.177-.23-4.24 0-6.302.688-3.323 1.26-5.843 3.437-7.218 6.645-1.032 2.292-1.26 4.813-.802 7.448.802 3.896 2.979 6.875 6.416 8.709 2.75 1.375 5.73 1.718 8.938.916 2.177-.573 3.895-1.49 5.27-2.864V79.52h6.188V60.04c0-.916.115-1.718.344-2.635.573-2.062 1.833-3.666 3.666-4.698 1.605-.802 3.323-1.03 5.386-.687 2.062.344 3.552 1.49 4.469 3.323.458 1.031.687 2.406.573 4.01-.23 2.521-1.49 4.125-3.896 5.156-1.26.688-2.75.802-4.47.573h-.343c-.114-.114-.344-.114-.458-.114h-.688l.115.687c.114.802.344 1.604.458 2.406.115.688.23 1.49.344 2.292l.115.459.458.114c2.292.344 4.469.115 6.76-.573 3.782-1.375 6.302-3.781 7.563-7.333.802-2.406.916-4.698.458-7.334-.573-2.979-2.177-5.385-4.698-7.218-1.833-1.375-3.896-2.063-6.187-2.177-1.834-.115-3.667.114-5.5.687-1.604.688-2.98 1.604-4.01 2.636V39.99H83.53v-5.5H26.47v5.5z"></path>
    </g>
  </g>
  <g class="st0" id="math_course_dweb">
    <defs>
      <linearGradient id="a14" x1="0%" x2="99.789%" y1="0%" y2="99.789%">
        <stop offset="0%" stop-color="#FFC121"></stop>
        <stop offset="99.987%" stop-color="#FFAF1D"></stop>
      </linearGradient>
    </defs>
    <path fill="url(#a14)" d="M24.17 22.468a1.19 1.19 0 1 1 0-2.381 1.19 1.19 0 0 1 0 2.381zm0 6.128a1.192 1.192 0 1 1 .001-2.383 1.192 1.192 0 0 1-.001 2.383zm3.404-5.107a.852.852 0 1 1 0 1.702h-6.808a.85.85 0 1 1 0-1.702h6.808zm-9.9-3.378a7.66 7.66 0 1 1 12.99 8.12 7.66 7.66 0 0 1-12.989-8.12zm1.444.902a5.958 5.958 0 1 0 10.106 6.315 5.958 5.958 0 0 0-10.106-6.315zM8.511 8.851v2.723a.852.852 0 1 1-1.702 0V8.851H4.085a.851.851 0 1 1 0-1.702H6.81V4.085a.85.85 0 1 1 1.702 0V7.15h3.063a.852.852 0 1 1 0 1.702H8.511zm-7.177-5.08a7.66 7.66 0 1 1 12.993 8.118A7.66 7.66 0 0 1 1.334 3.771zm1.444.902a5.957 5.957 0 1 0 10.106 6.314A5.957 5.957 0 0 0 2.777 4.673zm23.435 2.476a.85.85 0 0 1 0 1.702h-4.426a.85.85 0 0 1 0-1.702h4.426zM17.675 3.77a7.659 7.659 0 0 1 10.554-2.436 7.66 7.66 0 1 1-8.118 12.991 7.659 7.659 0 0 1-2.436-10.554zm1.443.902a5.957 5.957 0 1 0 10.104 6.314 5.957 5.957 0 0 0-10.104-6.314zM7.759 25.444l-2.066 2.067a.852.852 0 0 1-1.204-1.204l2.067-2.066-2.026-2.026a.851.851 0 0 1 1.204-1.203l2.025 2.025 2.026-2.025a.85.85 0 0 1 1.203 0 .85.85 0 0 1 0 1.203l-2.025 2.026 2.067 2.066a.852.852 0 0 1-1.204 1.204l-2.067-2.067zm-6.425-5.333a7.66 7.66 0 1 1 12.991 8.122A7.66 7.66 0 0 1 1.334 20.11zm1.444.902a5.958 5.958 0 1 0 10.108 6.315 5.958 5.958 0 0 0-10.109-6.315z"></path>
  </g>
  <g class="st0" id="math_course_mweb">
    <defs>
      <linearGradient id="a15" x1="0%" x2="99.789%" y1="0%" y2="99.789%">
        <stop offset="0%" stop-color="#FFC121"></stop>
        <stop offset="99.987%" stop-color="#FFAF1D"></stop>
      </linearGradient>
    </defs>
    <path fill="url(#a15)" d="M18.128 16.851a.894.894 0 1 1 0-1.787.894.894 0 0 1 0 1.787zm0 4.596a.894.894 0 1 1 0-1.787.894.894 0 0 1 0 1.787zm2.553-3.83a.638.638 0 0 1 0 1.277h-5.107a.639.639 0 0 1 0-1.277h5.107zm-7.425-2.534a5.745 5.745 0 1 1 9.743 6.09 5.745 5.745 0 0 1-9.743-6.09zm1.083.677a4.468 4.468 0 1 0 7.577 4.739 4.468 4.468 0 0 0-7.577-4.74zM6.383 6.638v2.043a.638.638 0 0 1-1.277 0V6.638H3.064a.637.637 0 1 1 0-1.276h2.042V3.064a.638.638 0 0 1 1.277 0v2.298h2.298a.638.638 0 1 1 0 1.276H6.383zm-5.382-3.81a5.745 5.745 0 1 1 9.743 6.09 5.745 5.745 0 0 1-9.743-6.09zm1.082.677A4.466 4.466 0 0 0 3.505 9.66a4.47 4.47 0 1 0-1.423-6.155zM19.66 5.362a.638.638 0 1 1 0 1.276h-3.32a.638.638 0 1 1 0-1.276h3.32zm-6.404-2.534a5.745 5.745 0 1 1 9.743 6.09 5.745 5.745 0 0 1-9.743-6.09zm1.083.677a4.47 4.47 0 1 0 7.578 4.733 4.47 4.47 0 0 0-7.578-4.733zm-8.52 15.578l-1.55 1.55a.636.636 0 0 1-.902 0 .636.636 0 0 1 0-.902l1.55-1.55-1.52-1.52a.638.638 0 1 1 .903-.902l1.52 1.519 1.519-1.52a.638.638 0 1 1 .902.903l-1.519 1.52 1.55 1.55c.25.249.25.653 0 .902a.636.636 0 0 1-.902 0l-1.55-1.55zm-4.818-4a5.745 5.745 0 1 1 9.743 6.09 5.745 5.745 0 0 1-9.743-6.09zm1.082.677a4.468 4.468 0 1 0 7.58 4.737 4.468 4.468 0 0 0-7.58-4.738z"></path>
  </g>
  <g class="st0" id="math_session_mweb">
    <path fill-opacity=".2" d="M76.494 70.429c-2.097 0-3.797-1.685-3.797-3.763 0-2.079 1.7-3.764 3.797-3.764 2.097 0 3.797 1.685 3.797 3.764 0 2.078-1.7 3.763-3.797 3.763zm0 19.353c-2.097 0-3.797-1.684-3.797-3.763 0-2.078 1.7-3.763 3.797-3.763 2.097 0 3.797 1.685 3.797 3.763 0 2.079-1.7 3.763-3.797 3.763zm10.85-16.128c1.498 0 2.712 1.204 2.712 2.688 0 1.485-1.214 2.688-2.712 2.688h-21.7c-1.498 0-2.712-1.203-2.712-2.688 0-1.484 1.214-2.688 2.712-2.688h21.7zM55.79 62.985c7.145-11.33 22.206-14.776 33.64-7.696 11.433 7.08 14.91 22.005 7.765 33.336-7.144 11.33-22.205 14.776-33.638 7.696-11.434-7.08-14.911-22.005-7.767-33.336zm4.601 2.849c-5.557 8.813-2.853 20.42 6.04 25.928 8.893 5.506 20.607 2.826 26.164-5.986 5.557-8.813 2.852-20.421-6.04-25.928-8.893-5.507-20.607-2.827-26.164 5.986zM26.585 27.42v8.601c0 1.485-1.214 2.688-2.712 2.688-1.498 0-2.713-1.203-2.713-2.688V27.42h-8.68c-1.498 0-2.712-1.204-2.712-2.688 0-1.485 1.214-2.688 2.712-2.688h8.68v-9.677c0-1.485 1.215-2.688 2.713-2.688s2.712 1.203 2.712 2.688v9.677h9.765c1.498 0 2.712 1.203 2.712 2.688 0 1.484-1.214 2.688-2.712 2.688h-9.765zM3.713 11.375C10.857.045 25.918-3.4 37.352 3.68c11.433 7.08 14.91 22.005 7.766 33.336-7.145 11.33-22.206 14.776-33.64 7.696-11.433-7.08-14.91-22.005-7.765-33.336zm4.6 2.85c-5.557 8.812-2.852 20.42 6.04 25.927 8.893 5.507 20.607 2.827 26.164-5.986 5.557-8.813 2.853-20.42-6.04-25.928-8.893-5.506-20.607-2.826-26.164 5.986zm74.69 7.82c1.499 0 2.713 1.203 2.713 2.688 0 1.484-1.214 2.688-2.712 2.688H68.899c-1.498 0-2.712-1.204-2.712-2.688 0-1.485 1.214-2.688 2.712-2.688h14.105zm-27.212-10.67C62.936.045 77.997-3.4 89.431 3.68c11.433 7.08 14.91 22.005 7.765 33.336-7.144 11.33-22.205 14.776-33.638 7.696-11.434-7.08-14.911-22.005-7.767-33.336zm4.601 2.85c-5.557 8.812-2.853 20.42 6.04 25.927 8.893 5.507 20.607 2.827 26.164-5.986 5.557-8.813 2.852-20.42-6.04-25.928-8.893-5.506-20.607-2.826-26.164 5.986zM24.19 79.828l-6.586 6.527a2.73 2.73 0 0 1-3.836 0 2.668 2.668 0 0 1 0-3.8l6.587-6.529-6.456-6.397a2.67 2.67 0 0 1 0-3.801 2.73 2.73 0 0 1 3.836 0l6.455 6.397 6.456-6.397a2.73 2.73 0 0 1 3.836 0 2.67 2.67 0 0 1 0 3.801l-6.456 6.397 6.587 6.528a2.67 2.67 0 0 1 0 3.801 2.73 2.73 0 0 1-3.836 0L24.19 79.83zM3.713 62.985c7.144-11.33 22.205-14.776 33.639-7.696 11.433 7.08 14.91 22.005 7.766 33.336-7.145 11.33-22.206 14.776-33.64 7.696C.046 89.24-3.431 74.316 3.714 62.985zm4.6 2.849c-5.557 8.813-2.852 20.42 6.04 25.928 8.893 5.506 20.607 2.826 26.164-5.986 5.557-8.813 2.853-20.421-6.04-25.928-8.893-5.507-20.607-2.827-26.164 5.986z"></path>
  </g>
  <g class="st0" id="math_session_dweb">
    <path fill-opacity=".2" d="M75.598 70.27a3.73 3.73 0 1 1 0-7.462 3.73 3.73 0 0 1 0 7.463zm0 19.18a3.73 3.73 0 1 1 0-7.46 3.73 3.73 0 0 1 0 7.46zm10.655-15.983a2.664 2.664 0 0 1 0 5.328h-21.31a2.664 2.664 0 0 1 0-5.328h21.31zM55.267 62.894c7.016-11.229 21.807-14.643 33.035-7.627 11.229 7.016 14.644 21.807 7.627 33.035-7.016 11.229-21.807 14.644-33.035 7.627-11.229-7.016-14.643-21.807-7.627-33.035zm4.518 2.823c-5.457 8.733-2.801 20.237 5.932 25.694 8.733 5.457 20.237 2.802 25.694-5.932 5.457-8.733 2.802-20.237-5.932-25.694-8.733-5.457-20.237-2.801-25.694 5.932zm-33.2-38.067v8.524a2.664 2.664 0 0 1-5.328 0V27.65h-8.524a2.664 2.664 0 0 1 0-5.327h8.524v-9.59a2.664 2.664 0 0 1 5.328 0v9.59h9.59a2.663 2.663 0 1 1-.001 5.327h-9.59zM4.122 11.75C11.14.52 25.93-2.895 37.158 4.121 48.386 11.14 51.8 25.93 44.785 37.158 37.768 48.386 22.978 51.8 11.749 44.785.521 37.768-2.894 22.978 4.122 11.749zm4.518 2.822c-5.457 8.734-2.8 20.237 5.932 25.695 8.734 5.457 20.237 2.801 25.695-5.932 5.457-8.734 2.801-20.237-5.932-25.695C25.6 3.183 14.098 5.84 8.64 14.572zm73.351 7.75a2.664 2.664 0 0 1 0 5.328H68.14a2.664 2.664 0 1 1 0-5.327h13.85zM55.267 11.75C62.283.521 77.074-2.894 88.302 4.122c11.229 7.017 14.644 21.807 7.627 33.036-7.016 11.228-21.807 14.643-33.035 7.627-11.229-7.017-14.643-21.807-7.627-33.036zm4.518 2.823c-5.457 8.734-2.801 20.237 5.932 25.695 8.733 5.457 20.237 2.801 25.694-5.932C96.868 25.6 94.213 14.098 85.48 8.64c-8.733-5.457-20.237-2.8-25.694 5.932zM24.233 79.586l-6.469 6.469a2.664 2.664 0 0 1-3.767-3.767l6.469-6.47-6.34-6.339a2.664 2.664 0 0 1 3.767-3.767l6.34 6.34 6.34-6.34a2.664 2.664 0 0 1 3.767 3.767L28 75.82l6.469 6.469a2.664 2.664 0 0 1-3.767 3.767l-6.47-6.469zM4.123 62.894c7.016-11.229 21.806-14.643 33.035-7.627 11.228 7.016 14.643 21.807 7.627 33.035-7.017 11.229-21.807 14.644-33.036 7.627C.521 88.913-2.894 74.122 4.122 62.894zm4.517 2.823c-5.457 8.733-2.8 20.237 5.932 25.694 8.734 5.457 20.237 2.802 25.695-5.932 5.457-8.733 2.801-20.237-5.932-25.694-8.734-5.457-20.237-2.801-25.695 5.932z"></path>
  </g>
  <g class="st0" id="physics_course_dweb">
    <defs>
      <linearGradient id="a16" x1="11.719%" x2="88.281%" y1="0%" y2="100%">
        <stop offset="0%" stop-color="#1FC1BB"></stop>
        <stop offset="100%" stop-color="#39B4E0"></stop>
      </linearGradient>
    </defs>
    <path fill="url(#a16)" d="M4.99 14.669c.87-.77 1.833-1.534 2.876-2.276.126-1.484.329-2.89.6-4.186-3.217-.98-5.676-.95-6.386.207-.74 1.205.433 3.614 2.91 6.255zm-1.221 1.15C.797 12.625-.546 9.516.679 7.52c1.174-1.916 4.293-2.115 8.184-.96C9.963 2.589 11.782 0 14 0c2.265 0 4.114 2.699 5.206 6.817C23.253 5.72 26.472 6.002 27.604 8c1.156 2.038-.293 5.098-3.373 8.182 2.972 3.192 4.315 6.301 3.09 8.297-1.174 1.916-4.293 2.115-8.184.96C18.037 29.411 16.218 32 14 32c-2.265 0-4.114-2.699-5.206-6.817C4.747 26.28 1.528 25.998.396 24c-1.156-2.038.293-5.098 3.373-8.182zm15.765 7.974c3.217.98 5.676.95 6.386-.207.74-1.205-.433-3.614-2.91-6.255-.87.77-1.833 1.534-2.876 2.276a35.023 35.023 0 0 1-.6 4.186zM12.241 9.678c-.748-.35-1.48-.66-2.186-.927-.155.77-.288 1.584-.394 2.437a43.25 43.25 0 0 1 2.58-1.51zm1.884-.951a33.516 33.516 0 0 1 3.488-1.423c-.888-3.42-2.245-5.62-3.613-5.62-1.34 0-2.668 2.108-3.556 5.406 1.184.438 2.42.987 3.68 1.637zm1.634 13.595c.748.35 1.48.66 2.186.927.155-.77.288-1.584.394-2.437a43.25 43.25 0 0 1-2.58 1.51zm-1.884.951a33.516 33.516 0 0 1-3.488 1.423c.888 3.42 2.245 5.62 3.613 5.62 1.34 0 2.668-2.108 3.556-5.406a33.215 33.215 0 0 1-3.68-1.637zm-7.693-7.412c.483.455 1.001.913 1.551 1.37a44.365 44.365 0 0 1 .006-2.652 32.6 32.6 0 0 0-1.557 1.282zm-1.232 1.15c-2.566 2.55-3.82 4.916-3.122 6.147.684 1.207 3.233 1.304 6.585.377a35.486 35.486 0 0 1-.559-4.065 34.666 34.666 0 0 1-2.904-2.46zm9.142-6.399a39.358 39.358 0 0 0-4.634 2.717 40.665 40.665 0 0 0-.007 5.239 38.746 38.746 0 0 0 4.457 2.82 39.358 39.358 0 0 0 4.634-2.717 40.665 40.665 0 0 0 .007-5.239 38.746 38.746 0 0 0-4.457-2.82zm1.882-.867a43.992 43.992 0 0 1 2.371 1.494 32.97 32.97 0 0 0-.358-2.273c-.652.226-1.325.486-2.013.779zm-3.948 12.51a43.992 43.992 0 0 1-2.371-1.494c.097.792.218 1.552.358 2.273a31.376 31.376 0 0 0 2.013-.779zM23.05 14.99c2.566-2.551 3.82-4.917 3.122-6.148-.684-1.207-3.233-1.304-6.585-.377.253 1.264.442 2.629.559 4.065a34.666 34.666 0 0 1 2.904 2.46zm-1.232 1.149a33.305 33.305 0 0 0-1.551-1.37 44.365 44.365 0 0 1-.006 2.652 32.6 32.6 0 0 0 1.557-1.282zM14 18.695c-1.37 0-2.48-1.131-2.48-2.527 0-1.395 1.11-2.526 2.48-2.526 1.37 0 2.48 1.131 2.48 2.526 0 1.396-1.11 2.527-2.48 2.527z"></path>
  </g>
  <g class="st0" id="physics_course_mweb">
    <defs>
      <linearGradient id="a17" x1="11.719%" x2="88.281%" y1="0%" y2="100%">
        <stop offset="0%" stop-color="#1FC1BB"></stop>
        <stop offset="100%" stop-color="#39B4E0"></stop>
      </linearGradient>
    </defs>
    <path fill="url(#a17)" d="M3.743 11.002a25.947 25.947 0 0 1 2.156-1.707 26.4 26.4 0 0 1 .45-3.14c-2.412-.735-4.256-.712-4.789.155-.554.904.325 2.71 2.183 4.692zm-.917.862C.598 9.47-.41 7.138.51 5.64c.881-1.437 3.22-1.587 6.139-.72C7.473 1.941 8.837 0 10.5 0c1.699 0 3.085 2.024 3.904 5.112 3.036-.821 5.45-.61 6.3.888.866 1.529-.221 3.823-2.53 6.136 2.228 2.394 3.236 4.726 2.317 6.223-.881 1.437-3.22 1.587-6.139.72C13.527 22.059 12.163 24 10.5 24c-1.699 0-3.085-2.024-3.904-5.112-3.036.821-5.45.61-6.3-.888-.866-1.529.221-3.823 2.53-6.136zm11.825 5.981c2.412.735 4.256.712 4.789-.155.554-.904-.325-2.71-2.183-4.692a25.947 25.947 0 0 1-2.156 1.707 26.4 26.4 0 0 1-.45 3.14zM9.18 7.259a23.528 23.528 0 0 0-1.64-.696 24.54 24.54 0 0 0-.295 1.828A31.018 31.018 0 0 1 9.18 7.259zm1.412-.714c.896-.423 1.774-.78 2.617-1.067-.666-2.565-1.684-4.215-2.71-4.215-1.004 0-2.001 1.581-2.667 4.054.888.329 1.815.74 2.76 1.228zM11.82 16.74c.561.263 1.11.495 1.64.696a24.54 24.54 0 0 0 .295-1.828 31.018 31.018 0 0 1-1.935 1.132zm-1.412.714c-.896.423-1.774.78-2.617 1.067.666 2.565 1.684 4.215 2.71 4.215 1.004 0 2.001-1.581 2.667-4.054a24.915 24.915 0 0 1-2.76-1.228zm-5.77-5.56c.362.342.75.686 1.163 1.028a35.199 35.199 0 0 1 .004-1.989c-.412.32-.802.641-1.167.962zm-.924.863C1.788 14.67.847 16.445 1.37 17.368c.513.905 2.424.978 4.939.283a26.584 26.584 0 0 1-.42-3.049 26.199 26.199 0 0 1-2.177-1.844zm6.856-4.799a29.277 29.277 0 0 0-3.475 2.038 30.185 30.185 0 0 0-.006 3.929 29.299 29.299 0 0 0 3.342 2.115 29.297 29.297 0 0 0 3.476-2.038 30.185 30.185 0 0 0 .006-3.929 29.299 29.299 0 0 0-3.342-2.115zm1.412-.65a30.083 30.083 0 0 1 1.778 1.12 24.92 24.92 0 0 0-.268-1.705c-.49.17-.994.365-1.51.585zM9.019 16.69a30.083 30.083 0 0 1-1.778-1.12c.073.594.163 1.164.268 1.705.49-.17.994-.365 1.51-.585zm8.268-5.449c1.925-1.913 2.866-3.687 2.342-4.61-.513-.905-2.424-.978-4.939-.283.19.948.332 1.971.42 3.049a26.199 26.199 0 0 1 2.177 1.844zm-.924.862c-.362-.341-.75-.685-1.163-1.027a35.199 35.199 0 0 1-.004 1.989c.412-.32.802-.641 1.167-.962zM10.5 14.021c-1.027 0-1.86-.848-1.86-1.895 0-1.046.833-1.894 1.86-1.894 1.027 0 1.86.848 1.86 1.894 0 1.047-.833 1.895-1.86 1.895z"></path>
  </g>
  <g class="st0" id="physics_session_mweb">
    <path fill-opacity=".2" fill-rule="evenodd" d="M54.555 0c8.724 0 15.904 9.379 20.326 23.856 14.665-3.237 26.336-1.536 30.77 6.144 4.567 7.91-.198 19.297-10.987 30.716 10.384 11.788 14.748 23.334 9.909 31.08-4.595 7.351-15.902 8.751-29.993 5.311C70.137 111.036 63.084 120 54.555 120c-8.8 0-16.028-9.54-20.44-24.228C18.696 99.497 6.326 97.96 1.729 90c-4.567-7.91.198-19.297 10.988-30.716C2.33 47.496-2.034 35.95 2.806 28.204c4.768-7.628 16.762-8.848 31.594-4.903C38.834 9.14 45.942 0 54.555 0zM53.18 89.121l-.284.127c-4.235 1.882-8.394 3.467-12.404 4.738 3.552 12.037 8.786 19.698 14.062 19.698 5.082 0 10.126-7.112 13.665-18.397-4.824-1.572-9.882-3.64-15.039-6.166zm36.65-23.658l-.16.146c-3.198 2.919-6.762 5.806-10.638 8.605-.556 5.84-1.455 11.35-2.653 16.386 11.403 2.86 20.095 2.236 22.836-2.152 2.895-4.632-.89-13.388-9.386-22.985zM17.38 64.2l-.115.122C8.518 73.568 4.478 82.13 7.198 86.842c2.768 4.796 12.5 5.52 25.213 2.378-.985-4.407-1.744-9.157-2.252-14.156-4.74-3.525-9.032-7.183-12.78-10.865zm54.386 14.925l-.181.114a151.79 151.79 0 0 1-10.507 6.05c3.06 1.33 6.047 2.477 8.916 3.436a112.422 112.422 0 0 0 1.772-9.6zm-34.27 1.052l.117.757c.35 2.234.753 4.389 1.202 6.454a112.11 112.11 0 0 0 6.608-2.373 151.727 151.727 0 0 1-7.927-4.838zm16.57-41.764l-.63.3a139.367 139.367 0 0 0-16.931 9.665c-.31 3.74-.475 7.63-.475 11.623 0 3.871.156 7.645.447 11.28a139.139 139.139 0 0 0 7.17 4.793 137.666 137.666 0 0 0 9.666 5.515c3.25-1.541 6.55-3.267 9.853-5.174a138.594 138.594 0 0 0 9.534-6.033 141.72 141.72 0 0 0 .032-20.329 138.131 138.131 0 0 0-8.999-6.125 138.121 138.121 0 0 0-9.666-5.515zm.489 12.043c5.717 0 10.352 4.273 10.352 9.545s-4.635 9.545-10.352 9.545c-5.718 0-10.353-4.273-10.353-9.545s4.635-9.545 10.353-9.545zm-25 2.899l-.177.136a114.795 114.795 0 0 0-7.134 5.96 114.124 114.124 0 0 0 7.283 6.505 155.733 155.733 0 0 1 .028-12.601zm50.077 2.18l.014.53a155.332 155.332 0 0 1-.039 9.186 111.27 111.27 0 0 0 5.529-4.702 113 113 0 0 0-5.504-5.014zM76.936 30.32l-.326.072c1.121 4.928 1.959 10.29 2.476 15.956 4.005 3.086 7.664 6.26 10.913 9.454 8.827-9.294 12.914-17.912 10.183-22.643-2.625-4.545-11.502-5.434-23.246-2.84zM8.163 31.552c-2.895 4.632.89 13.388 9.386 22.985 3.743-3.43 7.993-6.82 12.66-10.073.544-5.187 1.36-10.1 2.42-14.636-12.2-3.338-21.595-2.87-24.466 1.724zm62.02.551l-.61.189c-2.465.77-5.012 1.668-7.617 2.694a151.727 151.727 0 0 1 9.841 6.108 113.94 113.94 0 0 0-1.615-8.99zm-31.194-.276l-.126.563c-.51 2.325-.962 4.764-1.347 7.302a153.53 153.53 0 0 1 8.785-4.98 111.894 111.894 0 0 0-7.312-2.885zM54.555 6.316c-5.161 0-10.283 7.333-13.829 18.922 4.348 1.498 8.871 3.388 13.472 5.641 4.895-2.189 9.688-3.982 14.271-5.353-3.547-11.755-8.71-19.21-13.914-19.21z"></path>
  </g>
  <g class="st0" id="physics_session_dweb">
    <title>DA057ED0-A151-481B-9DE7-C1A9F4D8DCAA</title>
    <path d="M17.482 50.471c3.01-2.62 6.35-5.218 9.963-7.741.436-5.05 1.138-9.833 2.078-14.24C18.38 25.155 9.86 25.259 7.4 29.194c-2.563 4.1 1.5 12.294 10.082 21.277zm-4.233 3.91C2.953 43.524-1.701 32.947 2.54 26.158c4.072-6.517 14.876-7.196 28.36-3.264C34.712 9.375 41.013.573 48.698.573c7.848 0 14.253 9.18 18.036 23.188 14.023-3.728 25.175-2.771 29.1 4.025 4.002 6.933-1.019 17.342-11.687 27.833 10.296 10.857 14.95 21.434 10.708 28.223-4.073 6.517-14.877 7.196-28.36 3.264-3.811 13.519-10.112 22.321-17.797 22.321-7.848 0-14.253-9.18-18.036-23.188-14.023 3.728-25.175 2.771-29.1-4.025C-2.44 75.28 2.58 64.872 13.25 54.38zm54.623 27.13c11.144 3.334 19.665 3.23 22.124-.705 2.562-4.1-1.5-12.294-10.083-21.277-3.01 2.62-6.349 5.218-9.962 7.741-.436 5.05-1.139 9.833-2.079 14.24zM42.605 33.495a109.582 109.582 0 0 0-7.575-3.154 109.803 109.803 0 0 0-1.365 8.289 147.956 147.956 0 0 1 8.94-5.135zm6.525-3.238c4.137-1.917 8.192-3.537 12.085-4.838C58.14 13.785 53.438 6.302 48.698 6.302c-4.64 0-9.244 7.171-12.321 18.389 4.103 1.49 8.387 3.356 12.753 5.567zm5.661 46.246a109.582 109.582 0 0 0 7.575 3.154c.538-2.615.997-5.388 1.365-8.289a147.956 147.956 0 0 1-8.94 5.135zm-6.525 3.238c-4.137 1.917-8.192 3.537-12.086 4.838 3.076 11.635 7.778 19.118 12.518 19.118 4.64 0 9.244-7.171 12.321-18.389-4.103-1.49-8.387-3.356-12.753-5.567zM21.611 54.527c1.675 1.55 3.47 3.107 5.375 4.658a148.342 148.342 0 0 1 .02-9.02 111.71 111.71 0 0 0-5.395 4.362zm-4.268 3.91C8.453 67.114 4.107 75.16 6.524 79.348c2.37 4.105 11.202 4.435 22.816 1.281-.876-4.299-1.53-8.941-1.935-13.827-3.668-2.738-7.04-5.547-10.062-8.367zm31.675-21.765a134.445 134.445 0 0 0-8.34 4.436 134.587 134.587 0 0 0-7.717 4.806c-.2 2.943-.305 5.98-.305 9.086 0 2.984.098 5.903.282 8.736a134.722 134.722 0 0 0 7.26 4.868 134.445 134.445 0 0 0 8.18 4.724 134.24 134.24 0 0 0 8.34-4.436 134.587 134.587 0 0 0 7.717-4.806 134.914 134.914 0 0 0 .023-17.822 134.722 134.722 0 0 0-7.26-4.868 134.445 134.445 0 0 0-8.18-4.724zm6.52-2.95a147.587 147.587 0 0 1 8.214 5.083 110.98 110.98 0 0 0-1.239-7.734c-2.259.77-4.591 1.654-6.975 2.65zm-13.68 42.557a147.587 147.587 0 0 1-8.215-5.084 110.98 110.98 0 0 0 1.24 7.734c2.258-.77 4.591-1.654 6.975-2.65zm38.195-24.715c8.89-8.679 13.236-16.725 10.819-20.913-2.37-4.105-11.202-4.435-22.816-1.281.876 4.299 1.53 8.941 1.934 13.827 3.669 2.738 7.042 5.547 10.063 8.367zm-4.268 3.909a111.904 111.904 0 0 0-5.375-4.658 148.342 148.342 0 0 1-.02 9.02 111.71 111.71 0 0 0 5.395-4.362zm-27.087 8.694a8.594 8.594 0 1 1 0-17.188 8.594 8.594 0 0 1 0 17.188z" fill-opacity=".2"></path>
  </g>
  <g class="st0" id="science_course_dweb">
    <defs>
      <linearGradient id="a18" x1="25.087%" x2="74.913%" y1="0%" y2="100%">
        <stop offset="0%" stop-color="#2169E4"></stop>
        <stop offset="100%" stop-color="#61B9EA"></stop>
      </linearGradient>
    </defs>
    <path fill="url(#a18)" d="M.049 9.661c-.32 3.296.948 6.485 3.48 8.75 1.448 1.294 2.28 3.186 2.28 5.189v2.154c0 1.858 1.275 3.438 3.042 4.007.02.583.266 1.134.71 1.56.465.438 1.08.679 1.734.679 1.325 0 2.4-.999 2.444-2.24 1.765-.57 3.04-2.148 3.04-4.006V23.6c0-1.99.855-3.873 2.408-5.304 2.193-2.024 3.401-4.732 3.401-7.627 0-3.029-1.37-5.926-3.762-7.948C16.402.67 13.271-.274 10.01.069 4.725.621.535 4.655.049 9.661zm11.246 21c-.275 0-.534-.103-.727-.285a.984.984 0 0 1-.248-.386h1.952c-.137.388-.52.67-.977.67zm1.61-2.07l-.014.003a3.257 3.257 0 0 1-.597.056h-2c-.203 0-.4-.02-.592-.056l-.024-.003c-1.397-.27-2.45-1.44-2.45-2.837v-1.87h8.133v1.87c0 1.4-1.056 2.57-2.456 2.838zm-1.816-9.78L9.3 11.864a.737.737 0 0 0 .361.108.731.731 0 0 0 .5-.194l1.132-1.06 1.132 1.06a.73.73 0 0 0 .864.084l-1.79 6.949h-.41zm-1.062 1.34h2.534v2.394h-2.534V20.15zm1.28-18.81c2.437 0 4.737.825 6.572 2.377 2.091 1.768 3.29 4.301 3.29 6.95 0 2.53-1.056 4.898-2.974 6.668-1.552 1.431-2.504 3.252-2.759 5.209H13.98V19.48c0-.37-.317-.67-.71-.67h-.311l2.286-8.878c.013-.05.018-.1.019-.15l-.001-.017a.633.633 0 0 0-.048-.235l-.007-.014a.654.654 0 0 0-.144-.207c-.002-.001-.002-.004-.004-.006-.003-.003-.008-.004-.012-.007a.692.692 0 0 0-.212-.135l-.03-.01c-.027-.01-.054-.021-.082-.027a.772.772 0 0 0-.157-.018l-.023.001a.737.737 0 0 0-.244.044l-.02.01a.697.697 0 0 0-.216.133l-.007.005-1.132 1.06-1.133-1.06a.738.738 0 0 0-.999 0l-1.131 1.059-1.13-1.06c-.002-.002-.006-.002-.007-.004a.706.706 0 0 0-.214-.133l-.022-.01a.725.725 0 0 0-.242-.043c-.009 0-.017-.002-.025-.001a.705.705 0 0 0-.157.017c-.029.007-.056.018-.082.027l-.03.01a.73.73 0 0 0-.211.134c-.004.004-.01.005-.013.008l-.005.007a.708.708 0 0 0-.143.205l-.008.017a.633.633 0 0 0-.047.233l-.001.02c0 .049.005.099.019.149l2.286 8.877h-.312c-.392 0-.71.3-.71.67v3.064H7.154c-.248-1.971-1.179-3.792-2.65-5.108-2.213-1.98-3.322-4.77-3.042-7.653.426-4.376 4.086-7.901 8.704-8.384.383-.04.763-.06 1.141-.06zm7.575 9.626c0 .37.309.67.69.67a.68.68 0 0 0 .691-.67 8.445 8.445 0 0 0-2.104-5.559.707.707 0 0 0-.974-.077.654.654 0 0 0-.08.942 7.13 7.13 0 0 1 1.777 4.694zm-5.436-7.294c.751.229 1.46.582 2.107 1.05a.64.64 0 0 0 .38.125c.215 0 .428-.11.559-.314a.75.75 0 0 0-.179-1 8.404 8.404 0 0 0-2.497-1.244c-.357-.108-.732.112-.835.494-.102.382.106.78.465.89z"></path>
  </g>
  <g class="st0" id="science_course_mweb">
    <defs>
      <linearGradient id="a19" x1="25.803%" x2="74.197%" y1="0%" y2="100%">
        <stop offset="0%" stop-color="#2169E4"></stop>
        <stop offset="100%" stop-color="#61B9EA"></stop>
      </linearGradient>
    </defs>
    <path fill="url(#a19)" d="M.036 7.246c-.237 2.472.7 4.863 2.572 6.562 1.07.971 1.685 2.39 1.685 3.892v1.615c0 1.394.943 2.579 2.249 3.005.015.438.196.852.525 1.17.343.33.798.51 1.282.51.979 0 1.774-.749 1.806-1.68 1.305-.427 2.247-1.611 2.247-3.004v-1.617c0-1.492.632-2.904 1.78-3.978 1.62-1.518 2.514-3.549 2.514-5.72 0-2.272-1.014-4.445-2.781-5.961C12.123.502 9.809-.206 7.398.052 3.492.465.396 3.49.036 7.246zm8.313 15.75a.774.774 0 0 1-.538-.214.733.733 0 0 1-.183-.29H9.07a.761.761 0 0 1-.722.503zm1.19-1.552l-.01.001a2.308 2.308 0 0 1-.442.042H7.608a2.33 2.33 0 0 1-.437-.041l-.018-.003c-1.032-.203-1.811-1.08-1.811-2.128v-1.402h6.011v1.403c0 1.049-.78 1.926-1.814 2.128zm-1.343-7.336l-1.322-5.21c.083.048.173.08.267.08a.537.537 0 0 0 .37-.145l.836-.794.837.795c.175.166.437.18.638.063L8.5 14.108h-.303zm-.785 1.005h1.874v1.796H7.41v-1.796zm.946-14.108a7.4 7.4 0 0 1 4.858 1.783c1.546 1.326 2.432 3.226 2.432 5.213 0 1.898-.78 3.674-2.198 5-1.148 1.074-1.852 2.44-2.04 3.908h-1.076V14.61a.513.513 0 0 0-.524-.503h-.23l1.689-6.658a.477.477 0 0 0 .014-.112v-.013a.494.494 0 0 0-.036-.176l-.005-.011a.5.5 0 0 0-.107-.155c-.001-.002-.001-.004-.003-.005l-.009-.006a.508.508 0 0 0-.157-.1c-.007-.004-.014-.005-.022-.008-.02-.007-.039-.016-.06-.02a.525.525 0 0 0-.116-.014l-.017.001a.537.537 0 0 0-.18.033l-.016.007a.548.548 0 0 0-.159.1l-.005.004-.837.795-.837-.795a.54.54 0 0 0-.738 0l-.837.794-.835-.794-.005-.004a.543.543 0 0 0-.158-.1l-.016-.007a.568.568 0 0 0-.18-.032c-.006 0-.012-.002-.018-.001a.516.516 0 0 0-.116.013c-.021.005-.04.013-.06.02l-.022.008a.52.52 0 0 0-.157.1c-.002.003-.006.003-.01.006a.502.502 0 0 0-.108.159c-.002.004-.005.008-.006.013a.47.47 0 0 0-.035.174l-.001.015a.43.43 0 0 0 .014.112l1.69 6.658h-.231a.513.513 0 0 0-.524.503v2.298H5.288c-.183-1.479-.871-2.845-1.958-3.831C1.693 11.594.874 9.5 1.08 7.339 1.396 4.057 4.1 1.413 7.515 1.05c.283-.03.564-.046.843-.046zm5.599 7.22c0 .278.228.502.51.502a.505.505 0 0 0 .511-.501 6.39 6.39 0 0 0-1.555-4.17.518.518 0 0 0-.72-.058.497.497 0 0 0-.06.707 5.389 5.389 0 0 1 1.314 3.52zm-4.018-5.47c.556.171 1.08.436 1.558.788a.468.468 0 0 0 .28.093.49.49 0 0 0 .414-.236.567.567 0 0 0-.132-.749 6.166 6.166 0 0 0-1.846-.933c-.264-.081-.541.084-.617.37-.076.287.078.585.343.667z"></path>
  </g>
  <g class="st0" id="science_session_mweb">
    <path fill-opacity=".2" d="M.163 33.21c-1.072 11.329 3.17 22.29 11.64 30.075 4.845 4.452 7.625 10.954 7.625 17.839v7.405c0 6.388 4.267 11.817 10.177 13.773.068 2.007.89 3.901 2.378 5.361A8.27 8.27 0 0 0 37.782 110c4.43 0 8.03-3.433 8.174-7.7 5.905-1.957 10.17-7.384 10.17-13.77v-7.41c0-6.836 2.86-13.31 8.051-18.231 7.337-6.957 11.379-16.267 11.379-26.217 0-10.413-4.586-20.372-12.584-27.323C54.863 2.302 44.389-.94 33.48.237 15.803 2.133 1.79 16 .163 33.21zm37.619 72.184c-.92 0-1.788-.35-2.431-.975a3.409 3.409 0 0 1-.832-1.33h6.53a3.444 3.444 0 0 1-3.267 2.305zm5.385-7.11l-.048.008c-.647.124-1.313.192-1.996.192h-6.691c-.677 0-1.339-.068-1.98-.19-.028-.007-.055-.008-.082-.013-4.67-.929-8.195-4.948-8.195-9.752v-6.426h27.204v6.427c0 4.809-3.532 8.831-8.212 9.754zm-6.075-33.622l-5.984-23.88c.377.22.783.371 1.209.371a2.4 2.4 0 0 0 1.67-.667l3.785-3.642 3.79 3.643c.792.762 1.976.83 2.888.289l-5.988 23.886h-1.37zm-3.554 4.606h8.479v8.23h-8.48v-8.23zm4.284-64.66c8.15 0 15.845 2.838 21.983 8.171C66.798 18.858 70.81 27.566 70.81 36.67c0 8.7-3.532 16.84-9.948 22.921-5.192 4.92-8.378 11.18-9.23 17.906h-4.87V66.965c0-1.273-1.061-2.303-2.373-2.303h-1.044l7.647-30.516c.043-.172.06-.344.063-.514l-.003-.06a2.206 2.206 0 0 0-.158-.808l-.025-.05a2.276 2.276 0 0 0-.481-.71c-.006-.006-.008-.015-.014-.021-.011-.01-.027-.015-.04-.026a2.359 2.359 0 0 0-.71-.464c-.033-.014-.067-.021-.1-.034-.09-.033-.179-.072-.275-.093a2.425 2.425 0 0 0-.524-.062c-.026 0-.05.005-.077.005a2.453 2.453 0 0 0-.816.15c-.024.01-.045.023-.068.033-.268.11-.511.264-.72.46-.008.006-.018.01-.024.016l-3.788 3.643-3.789-3.643a2.424 2.424 0 0 0-3.341 0l-3.784 3.64-3.779-3.64c-.008-.008-.019-.01-.025-.017a2.362 2.362 0 0 0-.715-.456c-.026-.011-.048-.025-.073-.034a2.389 2.389 0 0 0-.81-.149c-.028 0-.055-.006-.084-.005a2.494 2.494 0 0 0-.525.06c-.096.023-.185.062-.275.094-.033.012-.065.02-.097.034a2.35 2.35 0 0 0-.708.46c-.013.013-.03.016-.043.028-.008.008-.01.017-.016.025a2.282 2.282 0 0 0-.478.703c-.008.02-.02.038-.028.058a2.218 2.218 0 0 0-.157.801c0 .023-.004.043-.004.066.003.17.019.343.063.515l7.647 30.516h-1.044c-1.312 0-2.373 1.03-2.373 2.303v10.532H23.93c-.83-6.775-3.944-13.036-8.863-17.558C7.662 53.138 3.954 43.548 4.89 33.634 6.314 18.596 18.557 6.476 34.003 4.818a34.89 34.89 0 0 1 3.819-.209zm25.335 33.093A2.304 2.304 0 0 0 65.467 40a2.304 2.304 0 0 0 2.31-2.3 29.5 29.5 0 0 0-7.038-19.11 2.316 2.316 0 0 0-3.256-.266 2.291 2.291 0 0 0-.268 3.24 24.912 24.912 0 0 1 5.942 16.137zM44.976 12.627c2.512.785 4.883 2 7.047 3.611.389.29.832.429 1.27.429.722 0 1.433-.378 1.87-1.082.703-1.129.436-2.666-.596-3.434a27.832 27.832 0 0 0-8.352-4.279c-1.196-.37-2.451.386-2.795 1.7-.342 1.311.355 2.68 1.556 3.055z"></path>
  </g>
  <g class="st0" id="science_session_dweb">
    <title>68B407F2-735F-445E-AF1D-1B9D21AD137B</title>
    <path d="M.163 33.21c-1.072 11.329 3.17 22.29 11.64 30.075 4.845 4.452 7.625 10.954 7.625 17.839v7.405c0 6.388 4.267 11.817 10.177 13.773.068 2.007.89 3.901 2.378 5.361A8.27 8.27 0 0 0 37.782 110c4.43 0 8.03-3.433 8.174-7.7 5.905-1.957 10.17-7.384 10.17-13.77v-7.41c0-6.836 2.86-13.31 8.051-18.231 7.337-6.957 11.379-16.267 11.379-26.217 0-10.413-4.586-20.372-12.584-27.323C54.863 2.302 44.389-.94 33.48.237 15.803 2.133 1.79 16 .163 33.21zm37.619 72.184c-.92 0-1.788-.35-2.431-.975a3.418 3.418 0 0 1-.832-1.33h6.53a3.443 3.443 0 0 1-3.267 2.305zm5.385-7.11l-.048.008c-.647.124-1.313.192-1.996.192h-6.691a10.53 10.53 0 0 1-1.98-.19c-.028-.007-.055-.008-.082-.013-4.67-.929-8.195-4.948-8.195-9.752v-6.426h27.204v6.427c0 4.809-3.532 8.831-8.212 9.754zm-6.075-33.622l-5.984-23.88c.377.22.783.371 1.209.371a2.4 2.4 0 0 0 1.67-.667l3.785-3.642 3.79 3.643c.792.762 1.976.83 2.888.289l-5.988 23.886h-1.37zm-3.554 4.606h8.479v8.23h-8.48v-8.23zm4.284-64.66c8.15 0 15.845 2.838 21.983 8.171C66.798 18.858 70.81 27.566 70.81 36.67c0 8.7-3.532 16.84-9.948 22.921-5.192 4.92-8.378 11.18-9.23 17.906h-4.87V66.965c0-1.273-1.061-2.303-2.373-2.303h-1.044l7.647-30.516c.043-.172.06-.344.063-.514l-.003-.06a2.208 2.208 0 0 0-.158-.808l-.025-.05a2.273 2.273 0 0 0-.481-.71c-.006-.006-.008-.015-.014-.021-.011-.01-.027-.015-.04-.026a2.353 2.353 0 0 0-.71-.464c-.033-.014-.067-.021-.1-.034-.09-.033-.179-.072-.275-.093a2.46 2.46 0 0 0-.524-.062c-.026 0-.05.005-.077.005a2.43 2.43 0 0 0-.816.15c-.024.01-.045.023-.068.033a2.36 2.36 0 0 0-.72.46c-.008.006-.018.01-.024.016l-3.788 3.643-3.789-3.643a2.425 2.425 0 0 0-3.341 0l-3.784 3.64-3.779-3.64c-.008-.008-.019-.01-.025-.017a2.373 2.373 0 0 0-.715-.456c-.026-.011-.048-.025-.073-.034a2.386 2.386 0 0 0-.81-.149c-.028 0-.055-.006-.084-.005a2.472 2.472 0 0 0-.525.06c-.096.023-.185.062-.275.094-.033.012-.065.02-.097.034a2.35 2.35 0 0 0-.708.46c-.013.013-.03.016-.043.028-.008.008-.01.017-.016.025a2.282 2.282 0 0 0-.478.703c-.008.02-.02.038-.028.058a2.214 2.214 0 0 0-.157.801c0 .023-.004.043-.004.066.003.17.019.343.063.515l7.647 30.516h-1.044c-1.312 0-2.373 1.03-2.373 2.303v10.532H23.93c-.83-6.775-3.944-13.036-8.863-17.558C7.662 53.138 3.954 43.548 4.89 33.634 6.314 18.596 18.557 6.476 34.003 4.818a34.826 34.826 0 0 1 3.819-.209zm25.335 33.093A2.304 2.304 0 0 0 65.467 40a2.304 2.304 0 0 0 2.31-2.3 29.5 29.5 0 0 0-7.038-19.11 2.317 2.317 0 0 0-3.256-.266 2.29 2.29 0 0 0-.268 3.24 24.91 24.91 0 0 1 5.942 16.137zM44.976 12.627c2.512.785 4.883 2 7.047 3.611.389.29.832.429 1.27.429.722 0 1.433-.378 1.87-1.082.703-1.129.436-2.666-.596-3.434a27.826 27.826 0 0 0-8.352-4.279c-1.196-.37-2.451.386-2.795 1.7-.342 1.311.355 2.68 1.556 3.055z" fill-opacity=".25"></path>
  </g>
  <g class="st0" id="social_course_dweb">
    <defs>
      <linearGradient id="a20" x1="10.788%" x2="85.763%" y1="0%" y2="95.602%">
        <stop offset="0%" stop-color="#D07C22"></stop>
        <stop offset="100%" stop-color="#AD3C70"></stop>
      </linearGradient>
    </defs>
    <path fill="url(#a20)" d="M25.901 23.683c.279.287.209.717-.07 1.004-2.645 2.51-6.127 4.015-9.747 4.158v1.721h1.601c.418 0 .696.287.696.717s-.278.717-.696.717H13.09c-.418 0-.697-.287-.697-.717s.279-.717.697-.717h1.601v-1.65C6.545 28.487 0 21.533 0 13 0 8.626 1.81 4.396 4.874 1.384a.661.661 0 0 1 .975 0 .709.709 0 0 1 0 1.004c-2.855 2.725-4.456 6.597-4.456 10.54 0 8.03 6.336 14.555 14.064 14.555 3.551 0 6.893-1.362 9.47-3.8a.659.659 0 0 1 .974 0zM5.621 21.42C1.02 15.874 1.612 7.603 7.052 2.986 12.44-1.587 20.603-.84 25.25 4.762c4.601 5.548 4.01 13.819-1.43 18.436-5.441 4.617-13.596 3.77-18.198-1.777zM16.642 5.89l-3.734 3.168 6.015 7.25 3.733-3.168a20.1 20.1 0 0 0-6.014-7.25zm2.179 12.377l-3.414 2.897c2.57 1.564 5.117 2.115 6.831 1.222l-3.417-4.119zm4.427-3.757l-3.414 2.897 3.417 4.12c1.167-1.552 1.118-4.132-.003-7.017zM15.41 5.064C12.84 3.5 10.293 2.949 8.58 3.842l3.417 4.119 3.414-2.897zm-7.84 6.654l3.413-2.897-3.418-4.12C6.4 6.254 6.45 8.834 7.57 11.719zm.59 1.37a20.344 20.344 0 0 0 2.58 3.988 20.143 20.143 0 0 0 3.435 3.262l3.733-3.168-6.014-7.25-3.734 3.168zm1.514 4.893c-1.048-1.263-1.936-2.662-2.634-3.942l-2.613 2.218a11.882 11.882 0 0 0 2.26 4.259 11.738 11.738 0 0 0 3.754 2.991l2.614-2.218c-1.125-.917-2.287-1.99-3.38-3.308zm9.486 6.176c-1.575-.255-3.217-.92-4.874-2.041l-2.347 1.992c2.327.833 4.869.828 7.221.049zm7.607-12.634l-2.347 1.992c.804 1.845 1.166 3.597 1.14 5.21 1.168-2.209 1.56-4.694 1.207-7.202zm-2.639-5.81a11.476 11.476 0 0 0-3.753-2.991L17.762 4.94c1.178.872 2.333 2.045 3.38 3.308 1.049 1.263 1.937 2.662 2.634 3.942l2.614-2.218a11.644 11.644 0 0 0-2.26-4.259zM11.71 2.027c1.575.255 3.217.92 4.874 2.04l2.347-1.991c-2.38-.788-4.868-.829-7.22-.049zM4.103 14.661l2.347-1.992c-.803-1.845-1.166-3.597-1.14-5.21-1.168 2.208-1.614 4.74-1.207 7.202z"></path>
  </g>
  <g class="st0" id="social_course_mweb">
    <defs>
      <linearGradient id="a21" x1="9.881%" x2="86.59%" y1="0%" y2="95.602%">
        <stop offset="0%" stop-color="#D07C22"></stop>
        <stop offset="100%" stop-color="#AD3C70"></stop>
      </linearGradient>
    </defs>
    <path fill="url(#a21)" d="M19.649 17.762c.211.215.158.538-.053.753-2.007 1.882-4.648 3.011-7.395 3.119v1.29h1.215c.317 0 .528.216.528.538 0 .323-.21.538-.528.538H9.93c-.317 0-.528-.215-.528-.538 0-.322.211-.537.528-.537h1.215v-1.237C4.965 21.365 0 16.148 0 9.75c0-3.28 1.373-6.453 3.697-8.712a.505.505 0 0 1 .74 0 .527.527 0 0 1 0 .753c-2.166 2.044-3.38 4.947-3.38 7.905 0 6.023 4.806 10.916 10.669 10.916 2.694 0 5.23-1.022 7.184-2.85a.504.504 0 0 1 .739 0zM4.265 16.066C.774 11.906 1.223 5.702 5.35 2.24 9.436-1.19 15.63-.63 19.155 3.572c3.491 4.16 3.042 10.363-1.085 13.827-4.127 3.463-10.314 2.828-13.805-1.333zm8.36-11.648L9.793 6.795l4.562 5.437 2.833-2.377a15.259 15.259 0 0 0-1.958-2.99 15.176 15.176 0 0 0-2.605-2.447zm1.653 9.283l-2.59 2.173c1.95 1.172 3.882 1.586 5.182.917l-2.592-3.09zm3.358-2.818l-2.59 2.173 2.593 3.09c.885-1.164.848-3.099-.003-5.263zm-5.945-7.085C9.74 2.625 7.809 2.212 6.509 2.88L9.1 5.971l2.59-2.173zm-5.948 4.99l2.59-2.172-2.593-3.09c-.885 1.164-.848 3.098.003 5.263zm.448 1.028a15.145 15.145 0 0 0 4.563 5.438l2.832-2.377L9.024 7.44 6.19 9.816zm1.149 3.67c-.795-.948-1.469-1.997-1.998-2.957l-1.983 1.664a8.88 8.88 0 0 0 4.563 5.437l1.982-1.663a18.281 18.281 0 0 1-2.564-2.481zm7.196 4.631c-1.195-.19-2.44-.69-3.698-1.53l-1.78 1.494c1.765.625 3.693.621 5.478.036zm5.77-9.475l-1.78 1.494c.61 1.384.885 2.698.865 3.907.886-1.656 1.184-3.52.916-5.4zm-2-4.357a8.703 8.703 0 0 0-2.849-2.244l-1.982 1.664c.893.654 1.77 1.534 2.564 2.481.795.947 1.469 1.997 1.998 2.956L20.02 7.48a8.676 8.676 0 0 0-1.715-3.194zM8.883 1.52c1.194.191 2.44.69 3.697 1.53l1.78-1.493c-1.805-.59-3.693-.622-5.477-.037zm-5.771 9.476l1.78-1.494c-.61-1.384-.884-2.698-.865-3.907-.886 1.656-1.224 3.554-.915 5.4z"></path>
  </g>
  <g class="st0" id="social_session_mweb">
    <path fill-opacity=".2" d="M81.428 74.009c.876.896.657 2.24-.219 3.137-8.318 7.842-19.262 12.547-30.645 12.995v5.378H55.6c1.313 0 2.189.896 2.189 2.24 0 1.345-.876 2.241-2.19 2.241H41.153c-1.314 0-2.19-.896-2.19-2.24 0-1.345.876-2.241 2.19-2.241h5.034v-5.154C20.576 89.021 0 67.287 0 40.625c0-13.67 5.691-26.889 15.322-36.3.876-.896 2.19-.896 3.065 0 .876.897.876 2.241 0 3.137C9.412 15.977 4.377 28.077 4.377 40.4c0 25.095 19.92 45.484 44.217 45.484 11.164 0 21.67-4.257 29.77-11.875.875-.896 2.189-.896 3.064 0zm-63.755-7.067C3.206 49.606 5.066 23.76 22.17 9.33c16.936-14.288 42.6-11.955 57.21 5.552 14.468 17.336 12.607 43.182-4.496 57.612-17.104 14.43-42.743 11.784-57.21-5.552zM52.32 18.408L40.582 28.31 59.49 50.967l11.738-9.903c-2.027-4.14-4.818-8.512-8.113-12.46-3.295-3.947-7.092-7.47-10.796-10.196zm6.85 38.68l-10.732 9.054c8.078 4.885 16.088 6.609 21.475 3.819L59.17 57.088zm13.917-11.742L62.355 54.4l10.743 12.873c3.668-4.85 3.514-12.91-.012-21.927zM48.448 15.824c-8.077-4.885-16.088-6.609-21.474-3.82l10.743 12.874 10.731-9.054zM23.8 36.62l10.732-9.054-10.743-12.873c-3.668 4.85-3.514 12.909.011 21.927zm1.86 4.281c2.026 4.14 4.817 8.512 8.112 12.46 3.294 3.948 7.092 7.471 10.795 10.197l11.738-9.903-18.908-22.657-11.738 9.903zm4.758 15.29c-3.295-3.948-6.086-8.32-8.28-12.319l-8.217 6.932c1.356 4.706 3.812 9.36 7.107 13.309 3.295 3.947 7.428 7.188 11.802 9.347l8.216-6.932c-3.536-2.866-7.19-6.218-10.628-10.338zM60.24 75.488c-4.95-.796-10.114-2.874-15.323-6.377l-7.378 6.225c7.316 2.603 15.305 2.59 22.7.152zm23.914-39.48l-7.378 6.225c2.527 5.766 3.666 11.24 3.586 16.28 3.671-6.9 4.904-14.668 3.792-22.505zM75.86 17.853c-3.438-4.12-7.428-7.188-11.802-9.348l-8.216 6.932c3.703 2.726 7.333 6.39 10.628 10.338 3.294 3.948 6.086 8.32 8.28 12.319l8.216-6.932c-1.355-4.706-3.668-9.19-7.106-13.309zM36.815 6.335c4.95.796 10.113 2.874 15.322 6.377l7.378-6.225c-7.483-2.461-15.305-2.59-22.7-.152zM12.9 45.815l7.378-6.225c-2.526-5.766-3.665-11.24-3.585-16.28-3.672 6.9-5.072 14.81-3.793 22.505z"></path>
  </g>
  <g class="st0" id="social_session_dweb">
    <path fill-opacity=".2" d="M89.919 81.454c.967.984.725 2.461-.242 3.445-9.185 8.613-21.271 13.781-33.84 14.273v5.906h5.56c1.45 0 2.416.985 2.416 2.461 0 1.477-.966 2.461-2.417 2.461H45.443c-1.45 0-2.417-.984-2.417-2.46 0-1.477.967-2.462 2.417-2.462h5.56v-5.66C22.72 97.942 0 74.072 0 44.788c0-15.012 6.285-29.53 16.92-39.866.967-.985 2.417-.985 3.384 0 .967.984.967 2.46 0 3.445-9.91 9.351-15.47 22.64-15.47 36.174 0 27.562 21.997 49.956 48.827 49.956 12.328 0 23.93-4.676 32.874-13.043.967-.984 2.417-.984 3.384 0zm-70.403-7.762C3.54 54.652 5.595 26.266 24.482 10.418c18.701-15.693 47.04-13.131 63.175 6.097 15.977 19.04 13.922 47.427-4.965 63.275-18.887 15.848-47.2 12.942-63.176-6.098zm38.259-53.305L44.813 31.264l20.88 24.883 12.962-10.876c-2.238-4.547-5.32-9.349-8.959-13.685-3.638-4.335-7.832-8.205-11.921-11.199zm7.564 42.483l-11.851 9.943c8.92 5.366 17.766 7.259 23.714 4.195L65.34 62.87zm15.368-12.896l-11.85 9.943L80.72 74.056c4.05-5.326 3.88-14.178-.013-24.082zM53.5 17.549c-8.92-5.365-17.765-7.258-23.714-4.194L41.65 27.493 53.5 17.55zM26.28 40.39l11.852-9.944-11.864-14.138c-4.05 5.326-3.88 14.178.013 24.082zm2.053 4.703c2.238 4.547 5.32 9.349 8.96 13.685 3.637 4.335 7.83 8.205 11.92 11.198L62.175 59.1l-20.88-24.883-12.962 10.876zm5.256 16.792c-3.638-4.336-6.721-9.138-9.144-13.53l-9.073 7.614c1.497 5.168 4.21 10.281 7.847 14.617 3.639 4.336 8.203 7.895 13.033 10.266l9.073-7.613c-3.904-3.149-7.94-6.83-11.736-11.354zM66.52 83.08c-5.466-.874-11.168-3.157-16.92-7.004l-8.148 6.837c8.079 2.858 16.901 2.844 25.068.167zm26.408-43.361l-8.147 6.836c2.79 6.333 4.048 12.345 3.96 17.88 4.053-7.578 5.415-16.109 4.187-24.716zm-9.16-19.941c-3.796-4.524-8.201-7.895-13.031-10.267l-9.074 7.614c4.09 2.993 8.098 7.018 11.736 11.354 3.639 4.336 6.721 9.138 9.144 13.53l9.073-7.614c-1.497-5.169-4.05-10.093-7.847-14.617zM40.654 7.128c5.467.874 11.169 3.156 16.921 7.003l8.147-6.836c-8.263-2.703-16.9-2.844-25.068-.167zm-26.408 43.36l8.147-6.836c-2.79-6.333-4.047-12.344-3.959-17.88-4.054 7.578-5.6 16.264-4.188 24.717z"></path>
  </g>
  <g class="st0" id="mult_course_dweb">
    <defs><linearGradient id="a22" x1="1.91%" y1="46.31%" y2="53.83%"><stop offset="0%" stop-color="#FF9B37"/><stop offset="100%" stop-color="#FF7D49"/></linearGradient><linearGradient id="b22" x1="1.91%" y1="39.92%" y2="60.48%"><stop offset="0%" stop-color="#FF9B37"/><stop offset="100%" stop-color="#FF7D49"/></linearGradient><linearGradient id="c22" x1="1.91%" y1="19.81%" y2="81.39%"><stop offset="0%" stop-color="#FF9B37"/><stop offset="100%" stop-color="#FF7D49"/></linearGradient><linearGradient id="d22" x1="1.91%" y1="46.11%" y2="54.05%"><stop offset="0%" stop-color="#FF9B37"/><stop offset="100%" stop-color="#FF7D49"/></linearGradient><linearGradient id="e22" x1="1.91%" y1="1.91%" y2="100%"><stop offset="0%" stop-color="#FF9B37"/><stop offset="100%" stop-color="#FF7D49"/></linearGradient></defs><g fill="none"><path fill="url(#a22)" d="M18.2 13.933h3.167c.7 0 .7-1.166 0-1.166H18.2c-.7-.034-.7 1.166 0 1.166zm-4.3-1.2h-3.167c-.7 0-.7 1.167 0 1.167H13.9c.7.033.7-1.167 0-1.167z"/><path fill="url(#b22)" d="M13.9 15.8h-1.567c-.7 0-.7 1.2 0 1.2h1.6c.667 0 .667-1.2-.033-1.2z"/><path fill="url(#c22)" d="M23.3 9.533h-5.567c-.633 0-1.266.3-1.666.767a2.189 2.189 0 0 0-1.667-.767H8.833c-.6 0-1.133.5-1.133 1.134v10.966c0 .634.5 1.134 1.133 1.134H23.3c.6 0 1.1-.5 1.1-1.134V10.667c.033-.634-.467-1.134-1.1-1.134zm-.433 11.834H9.233v-10.4h5.234c.1 0 .333.066.533.233.267.267.3.667.3.833.033.7.067 3.5.033 7.367.067.367.367.6.7.6.334 0 .6-.267.667-.567 0-2.466.033-4.9.033-7.366 0-.034-.066-.467.234-.8a.98.98 0 0 1 .633-.3h5.233v10.4h.034z"/><path fill="url(#d22)" d="M18.2 17h3.167c.7 0 .7-1.2 0-1.2H18.2c-.7 0-.7 1.2 0 1.2z"/><path fill="url(#e22)" d="M16.033.3C7.3.3.2 7.4.2 16.133c0 8.734 7.1 15.834 15.833 15.834 8.734 0 15.834-7.1 15.834-15.834C31.867 7.4 24.767.3 16.033.3zm0 30c-7.8 0-14.166-6.367-14.166-14.167S8.233 1.967 16.033 1.967c7.8 0 14.167 6.366 14.167 14.166 0 7.8-6.367 14.167-14.167 14.167z"/></g>
  </g>
  <g class="st0" id="mult_course_mweb">
    <defs><linearGradient id="a23" x1="1.91%" y1="46.31%" y2="53.83%"><stop offset="0%" stop-color="#FF9B37"/><stop offset="100%" stop-color="#FF7D49"/></linearGradient><linearGradient id="b23" x1="1.91%" y1="39.92%" y2="60.48%"><stop offset="0%" stop-color="#FF9B37"/><stop offset="100%" stop-color="#FF7D49"/></linearGradient><linearGradient id="c23" x1="1.91%" y1="19.81%" y2="81.39%"><stop offset="0%" stop-color="#FF9B37"/><stop offset="100%" stop-color="#FF7D49"/></linearGradient><linearGradient id="d23" x1="1.91%" y1="46.11%" y2="54.05%"><stop offset="0%" stop-color="#FF9B37"/><stop offset="100%" stop-color="#FF7D49"/></linearGradient><linearGradient id="e23" x1="1.91%" y1="1.91%" y2="100%"><stop offset="0%" stop-color="#FF9B37"/><stop offset="100%" stop-color="#FF7D49"/></linearGradient></defs><g fill="none"><path fill="url(#a23)" d="M13.65 10.45h2.375c.525 0 .525-.875 0-.875H13.65c-.525-.025-.525.875 0 .875zm-3.225-.9H8.05c-.525 0-.525.875 0 .875h2.375c.525.025.525-.875 0-.875z"/><path fill="url(#b23)" d="M10.425 11.85H9.25c-.525 0-.525.9 0 .9h1.2c.5 0 .5-.9-.025-.9z"/><path fill="url(#c23)" d="M17.475 7.15H13.3c-.475 0-.95.225-1.25.575a1.64 1.64 0 0 0-1.25-.575H6.625c-.45 0-.85.375-.85.85v8.225c0 .475.375.85.85.85h10.85c.45 0 .825-.375.825-.85V8a.808.808 0 0 0-.825-.85zm-.325 8.875H6.925v-7.8h3.925c.075 0 .25.05.4.175.2.2.225.5.225.625.025.525.05 2.625.025 5.525.05.275.275.45.525.45s.45-.2.5-.425c0-1.85.025-3.675.025-5.525 0-.025-.05-.35.175-.6.2-.2.425-.225.475-.225h3.925v7.8h.025z"/><path fill="url(#d23)" d="M13.65 12.75h2.375c.525 0 .525-.9 0-.9H13.65c-.525 0-.525.9 0 .9z"/><path fill="url(#e23)" d="M12.025.225C5.475.225.15 5.55.15 12.1s5.325 11.875 11.875 11.875S23.9 18.65 23.9 12.1 18.575.225 12.025.225zm0 22.5C6.175 22.725 1.4 17.95 1.4 12.1S6.175 1.475 12.025 1.475 22.65 6.25 22.65 12.1s-4.775 10.625-10.625 10.625z"/></g>
  </g>
</svg>